<svg xmlns="http://www.w3.org/2000/svg" viewBox="0 0 1750.33 784.54"><g id="Camada_2" data-name="Camada 2"><g id="Camada_1-2" data-name="Camada 1"><path d="M98.15,772.94H0V13.71H160.7V218.28H98.15v73.81H160.7V496.66H98.15Z"/><path d="M168.82,13.71H272.56V561h53.91v212H168.82Z"/><path d="M427.66,714.94l-2.54,58H328L378.85,13.71H505.47l53.9,759.23H462.24l-2.54-58Zm23.9-166.61-5.08-102.28-3.56-155-2.54,155L435.8,548.33Z"/><path d="M559.37,772.94V13.71h150l10.17,260.46,2.54,301.58,2.54-301.58,9.67-260.46H882.8V772.94H781.6V639l16.27-457.65-33,591.57H678.37L645.31,170.83l16.78,469.25V772.94Z"/><path d="M893,772.94V13.71h171.38V212H991.62v77h72.72v199.3H991.62v81.19h72.72V772.94Z"/><path d="M1072.47,562V222.5c0-155,39.16-222.5,108.83-222.5,72.72,0,104.25,64.32,104.25,222.5V344.82H1183.84V222.5c0-40.07-1.53-41.13-5.09-41.13-5.59,0-5.59,3.17-5.59,41.13V554.66c0,38,1,41.13,5.59,41.13,4.07,0,5.09-3.17,5.09-41.13V420.74h101.71V562c0,158.18-40.18,222.5-106.8,222.5C1111.12,784.54,1072.47,727.6,1072.47,562Z"/><path d="M1293.17,562V222.5c0-159.23,41.19-222.5,107.3-222.5,21.36,0,39.66,8.44,55.94,22.14C1489,52.72,1507.77,116,1507.77,222.5V562c0,53.78-4.07,97-13.73,129.71-17.8,66.43-50.85,92.79-93.57,92.79C1332.83,784.54,1293.17,724.43,1293.17,562Zm112.89-7.38V222.5c0-38,0-41.13-5.59-41.13s-5.59,3.17-5.59,41.13V554.66c0,38,0,41.13,5.59,41.13S1406.06,592.62,1406.06,554.66Z"/><path d="M1516.92,772.94V13.71h117.47l44.24,513.53-22.88-364.85V13.71h94.58V772.94H1637.44L1593.2,271l20.85,331.11V772.94Z"/></g></g></svg>