<svg xmlns="http://www.w3.org/2000/svg" viewBox="0 0 1563.04 570.21"><defs><style>.cls-1{fill:#d364af;}</style></defs><g id="Camada_2" data-name="Camada 2"><g id="Camada_1-2" data-name="Camada 1"><path d="M36,41.64c-3.33,0-5.45-.36-7-1.19a7.14,7.14,0,0,1-3.67-3.92c-2,4.49-6.47,5.11-11.07,5.11-3.33,0-5.45-.36-7-1.19C2.88,38.48,2,33.2,2,25.89,2,15.19,5.49,2.43,22.11,2.43H23a2,2,0,0,1,2,2v8.91a2,2,0,0,1-2,2,10,10,0,0,0-4.16.64,14,14,0,0,1,2.92.63l.16.06a6.11,6.11,0,0,1,2.6,2.11C26.28,7.93,32.77,2.43,43.78,2.43h.86a2,2,0,0,1,2,2v8.91a2,2,0,0,1-2,2,9.53,9.53,0,0,0-4.11.64,12.34,12.34,0,0,1,2.92.65c4.36,1.7,5,6.67,5,11.78C48.35,38.3,45.24,41.64,36,41.64Z"/><path class="cls-1" d="M43.78,4.43h.81v8.91c-5.06,0-6.93,1.43-7.7,4.51h1a14.22,14.22,0,0,1,4.84.66c2.53,1,3.63,3.74,3.63,9.9,0,9.13-2.53,11.22-10.34,11.22-2.64,0-4.73-.22-6.16-1-3-1.32-4-4.95-4-12.76,0-14,5.48-21.46,17.89-21.46m-21.67,0h.81v8.91c-5.06,0-7.15,1.43-7.7,4.51h1a14.66,14.66,0,0,1,4.84.66c2.31,1,3.41,3.74,3.41,9.9a22.87,22.87,0,0,1-.88,7c-1.21,3.19-4.07,4.18-9.35,4.18-2.64,0-4.73-.22-6.16-1C5.1,37.33,4,33.7,4,25.89c0-14,5.69-21.46,18.11-21.46m21.67-4h0C37.88.43,31.31,2,26.92,7.57V4.44a4,4,0,0,0-3.9-4h-.91c-7.36,0-13,2.33-16.8,6.94C1.79,11.65,0,17.88,0,25.89,0,32.4.49,39.55,6.31,42.24c2.38,1.23,5.33,1.4,7.92,1.4s7.73,0,11-3.45a8.67,8.67,0,0,0,2.83,2.05c2.38,1.23,5.33,1.4,7.92,1.4,10.32,0,14.34-4.27,14.34-15.22,0-4.4-.46-9.06-3.37-11.86a4,4,0,0,0,1.61-3.21V4.44a4,4,0,0,0-3.9-4Z"/><rect x="48.09" y="3.54" width="26.33" height="83.2" rx="2"/><path class="cls-1" d="M72.42,5.54v79.2H50.09V5.54H72.42m0-4H50.09a4,4,0,0,0-4,4v79.2a4,4,0,0,0,4,4H72.42a4,4,0,0,0,4-4V5.54a4,4,0,0,0-4-4Z"/><path d="M80.6,48.63c-.79,0-1.61,0-2.45-.06a2,2,0,0,1-1.9-2l.11-9.79A2,2,0,0,1,77,35.34a2,2,0,0,1,1.39-.56H79A10.19,10.19,0,0,0,83.82,34c-7.26-.66-9.66-4.72-9.66-15.32a27.26,27.26,0,0,1,1.22-9.27c2.38-5.7,8-6.48,13.65-6.48,3.84,0,6.66.41,8.61,1.27,5.13,2,6.15,7.76,6.15,17.12C103.79,40.19,96.64,48.63,80.6,48.63Z"/><path class="cls-1" d="M89,4.88c3.41,0,6,.33,7.81,1.1,3.74,1.43,5,5.61,5,15.29,0,16.59-5.31,25.36-21.19,25.36-.76,0-1.54,0-2.35-.06l.11-9.79H79c5.17,0,7.55-1.36,8.5-4.85a5.36,5.36,0,0,1-1.32.11c-7.7,0-10-2.64-10-13.42a25.35,25.35,0,0,1,1.1-8.58c1.65-4,5.17-5.17,11.77-5.17m0-4c-6.08,0-12.66.91-15.46,7.63a.77.77,0,0,0-.07.16,28.61,28.61,0,0,0-1.34,10c0,6.64.85,10.46,2.94,13.19a10.4,10.4,0,0,0,1.36,1.44,4,4,0,0,0-2.1,3.47l-.11,9.79a4,4,0,0,0,3.8,4c.87,0,1.73.07,2.55.07,22.58,0,25.19-16.76,25.19-29.36,0-8.14-.58-16.3-7.43-19-2.23-1-5.2-1.4-9.33-1.4Z"/><path d="M153.49,86.74a2,2,0,0,1-1.82-1.16,2,2,0,0,1-1.81,1.16h-18.7a2,2,0,0,1-1.76-1,2,2,0,0,1-1.76,1H105.42a2,2,0,0,1-2-2V5.54a2,2,0,0,1,2-2h32.45a2,2,0,0,1,2,1.84l.72,8.89.68-8.88a2,2,0,0,1,2-1.85h32.12a2,2,0,0,1,2,2v79.2a2,2,0,0,1-2,2Z"/><path class="cls-1" d="M175.38,5.54v79.2H153.49v-14L157,23l-7.15,61.71h-18.7L124,21.93l3.63,48.95V84.74H105.42V5.54h32.45l2.2,27.17.55,31.46.55-31.46,2.09-27.17h32.12m0-4H143.26a4,4,0,0,0-2.7,1,4,4,0,0,0-2.69-1H105.42a4,4,0,0,0-4,4v79.2a4,4,0,0,0,4,4h22.22a4,4,0,0,0,1.76-.41,4,4,0,0,0,1.76.41h18.7a4.06,4.06,0,0,0,1.81-.43,4.1,4.1,0,0,0,1.82.43h21.89a4,4,0,0,0,4-4V5.54a4,4,0,0,0-4-4Z"/><path d="M217.4,88c-14.26,0-17.18-10-17.18-24.88v-36c0-16.28,8.83-24.88,25.54-24.88C243.19,2.22,251,9.79,251,26.77v6.82a2,2,0,0,1-1.72,2,2,2,0,0,1,1.72,2V84.74a2,2,0,0,1-2,2H231.26a2,2,0,0,1-2-1.84L229.11,83C226.59,86.35,222.74,88,217.4,88ZM226.64,65h.11a10.27,10.27,0,0,0,.31-3.28V60.67h-.84v1.08a11.89,11.89,0,0,0,.26,3.28Zm-.4-29.48h0Z"/><path class="cls-1" d="M225.76,4.22c16,0,23.21,6.38,23.21,22.55v6.82H226.64V26.44c0-3.41-.22-3.41-1.21-3.41s-1.21.11-1.21,3.63V61.75c0,4.29.55,5.28,2.42,5.28s2.42-1,2.42-5.28V58.67h-3.19V37.55H249V84.74H231.26l-.88-10.67c-1.21,7.81-4.73,11.88-13,11.88-11.22,0-15.18-6.38-15.18-22.88v-36c0-16.5,9.13-22.88,23.54-22.88m0-4c-18,0-27.54,9.29-27.54,26.88v36c0,9.44,1.24,15.55,4,19.82,3.11,4.75,8.06,7.06,15.15,7.06,4.34,0,7.85-1,10.54-3a4,4,0,0,0,3.32,1.76H249a4,4,0,0,0,4-4V37.55a3.91,3.91,0,0,0-.53-2,3.91,3.91,0,0,0,.53-2V26.77C253,8.66,244.32.22,225.76.22Z"/><path d="M278.45,86.74a2,2,0,0,1-.83-.18,3.36,3.36,0,0,1-1.16-.85,2,2,0,0,1-1.75,1H253.37a2,2,0,0,1-2-2V5.54a2,2,0,0,1,2-2H276.8a41.74,41.74,0,0,1,12.6,1.64c7.16,2.17,10.52,8.34,10.52,19.39V35.35c0,6-.79,10.45-4.18,13.22,3.61,2.71,4,7.08,4,12.3V78.69c0,3.61.25,4,.89,4.58a2,2,0,0,1-1.35,3.47Z"/><path class="cls-1" d="M276.8,5.54a40.21,40.21,0,0,1,12,1.54c6.16,1.87,9.13,7,9.13,17.49V35.35c0,7.92-1.43,11.55-6.49,13.31,5.28,1.65,6.27,5,6.27,12.21V78.69c0,3.63.22,4.84,1.54,6H278.45C277.24,84.19,277,82,277,78.8V61.2c0-2.75-.66-3.3-2.31-3.41V84.74H253.37V5.54H276.8m-2.09,34.65c2.09-.11,2.42-.88,2.42-2.75V26c0-2.09-.44-2.64-2.2-2.64h-.22V40.19M276.8,1.54H253.37a4,4,0,0,0-4,4v79.2a4,4,0,0,0,4,4h21.34a4,4,0,0,0,1.86-.46l.22.1a3.94,3.94,0,0,0,1.66.36h20.79a4,4,0,0,0,2.7-6.95.45.45,0,0,1-.07-.07,14,14,0,0,1-.17-3V60.87c0-4.68-.32-9.13-3.08-12.35,3-3.6,3.3-8.55,3.3-13.17V24.57c0-7.58-1.24-18-11.94-21.31A44,44,0,0,0,276.8,1.54Z"/><path d="M329,86.74a2,2,0,0,1-2-1.82l-.38-4.23h-3.28L323,84.92a2,2,0,0,1-2,1.82H300a2,2,0,0,1-2-2.27l11-79.2a2,2,0,0,1,2-1.73h27.39a2,2,0,0,1,2,1.71L352,84.45a2,2,0,0,1-2,2.29Z"/><path class="cls-1" d="M338.39,5.54l11.66,79.2H329l-.55-6h-6.93l-.55,6H300l11-79.2h27.39M323.32,61.31h3.41l-1.1-10.67-.77-16.17-.55,16.17-1,10.67M338.39,1.54H311A4,4,0,0,0,307,5l-11,79.2a4,4,0,0,0,4,4.55h21a4,4,0,0,0,4-3.64l0-.34,0,.34a4,4,0,0,0,4,3.64h21a4,4,0,0,0,4-4.58L342.35,5a4,4,0,0,0-4-3.42Z"/><path d="M353.68,86.74a2,2,0,0,1-2-2V28.11h-6.25a2,2,0,0,1-2-2V5.54a2,2,0,0,1,2-2h38.72a2,2,0,0,1,2,2V26.11a2,2,0,0,1-2,2H377.9V84.74a2,2,0,0,1-2,2Z"/><path class="cls-1" d="M384.15,5.54V26.11H375.9V84.74H353.68V26.11h-8.25V5.54h38.72m0-4H345.43a4,4,0,0,0-4,4V26.11a4,4,0,0,0,4,4h4.25V84.74a4,4,0,0,0,4,4H375.9a4,4,0,0,0,4-4V30.11h4.25a4,4,0,0,0,4-4V5.54a4,4,0,0,0-4-4Z"/><path d="M388.11,86.74a2,2,0,0,1-2-2V5.54a2,2,0,0,1,2-2h37.07a2,2,0,0,1,2,2V26.22a2,2,0,0,1-2,2H411.45v4h13.73a2,2,0,0,1,2,2V55a2,2,0,0,1-2,2H411.45v4.47h13.73a2,2,0,0,1,2,2V84.74a2,2,0,0,1-2,2Z"/><path class="cls-1" d="M425.18,5.54V26.22H409.45v8h15.73V55H409.45v8.47h15.73V84.74H388.11V5.54h37.07m0-4H388.11a4,4,0,0,0-4,4v79.2a4,4,0,0,0,4,4h37.07a4,4,0,0,0,4-4V63.51a4,4,0,0,0-4-4H413.45V59h11.73a4,4,0,0,0,4-4V34.25a4,4,0,0,0-4-4H413.45v0h11.73a4,4,0,0,0,4-4V5.54a4,4,0,0,0-4-4Z"/><path d="M429.25,86.74a2,2,0,0,1-2-2V5.54a2,2,0,0,1,2-2H464a2,2,0,0,1,2,2V26.88a2,2,0,0,1-2,2H452.48v3.7H464a2,2,0,0,1,2,2V55.92a2,2,0,0,1-2,2H452.48V84.74a2,2,0,0,1-2,2Z"/><path class="cls-1" d="M464,5.54V26.88H450.48v7.7H464V55.92H450.48V84.74H429.25V5.54H464m0-4H429.25a4,4,0,0,0-4,4v79.2a4,4,0,0,0,4,4h21.23a4,4,0,0,0,4-4V59.92H464a4,4,0,0,0,4-4V34.58a4,4,0,0,0-2.91-3.85A4,4,0,0,0,468,26.88V5.54a4,4,0,0,0-4-4Z"/><path d="M491,88c-17.2,0-24.88-7.88-24.88-25.54V5.54a2,2,0,0,1,2-2h21.78a2,2,0,0,1,1.1.33,2,2,0,0,1,1.1-.33H514a2,2,0,0,1,2,2V62.41C516,79.6,507.78,88,491,88Z"/><path class="cls-1" d="M514,5.54V62.41c0,16.06-7,23.54-23,23.54-16.94,0-22.88-7.81-22.88-23.54V5.54h21.78V61.09c0,3.85.11,4.07,1.1,4.07s1.1-.11,1.1-4.07V5.54H514m0-4H492.06a4.11,4.11,0,0,1-2.2,0H468.08a4,4,0,0,0-4,4V62.41C464.08,81.2,472.62,90,491,90c9.16,0,15.82-2.28,20.35-7S518,71.64,518,62.41V5.54a4,4,0,0,0-4-4Z"/><path d="M518.24,86.74a2,2,0,0,1-2-2V5.54a2,2,0,0,1,2-2h22.44a2,2,0,0,1,2,2V60.63h9.66a2,2,0,0,1,2,2V84.74a2,2,0,0,1-2,2Z"/><path class="cls-1" d="M540.68,5.54V62.63h11.66V84.74h-34.1V5.54h22.44m0-4H518.24a4,4,0,0,0-4,4v79.2a4,4,0,0,0,4,4h34.1a4,4,0,0,0,4-4V62.63a4,4,0,0,0-4-4h-7.66V5.54a4,4,0,0,0-4-4Z"/><path d="M579.07,86.74a2,2,0,0,1-2-2V5.54a2,2,0,0,1,2-2h34.76a2,2,0,0,1,2,2V26.88a2,2,0,0,1-2,2H602.3v3.7h11.53a2,2,0,0,1,2,2V55.92a2,2,0,0,1-2,2H602.3V84.74a2,2,0,0,1-2,2Z"/><path class="cls-1" d="M613.83,5.54V26.88H600.3v7.7h13.53V55.92H600.3V84.74H579.07V5.54h34.76m0-4H579.07a4,4,0,0,0-4,4v79.2a4,4,0,0,0,4,4H600.3a4,4,0,0,0,4-4V59.92h9.53a4,4,0,0,0,4-4V34.58a4,4,0,0,0-2.91-3.85,4,4,0,0,0,2.91-3.85V5.54a4,4,0,0,0-4-4Z"/><path d="M617.79,86.74a2,2,0,0,1-2-2V5.54a2,2,0,0,1,2-2h22.44a2,2,0,0,1,2,2V60.63h9.66a2,2,0,0,1,2,2V84.74a2,2,0,0,1-2,2Z"/><path class="cls-1" d="M640.23,5.54V62.63h11.66V84.74h-34.1V5.54h22.44m0-4H617.79a4,4,0,0,0-4,4v79.2a4,4,0,0,0,4,4h34.1a4,4,0,0,0,4-4V62.63a4,4,0,0,0-4-4h-7.66V5.54a4,4,0,0,0-4-4Z"/><path d="M683.35,86.74a2,2,0,0,1-2-1.82L681,80.69h-3.28l-.38,4.23a2,2,0,0,1-2,1.82h-21a2,2,0,0,1-2-2.27l11-79.2a2,2,0,0,1,2-1.73H692.7a2,2,0,0,1,2,1.71l11.66,79.2a2,2,0,0,1-.47,1.6,2,2,0,0,1-1.51.69Z"/><path class="cls-1" d="M692.7,5.54l11.66,79.2h-21l-.55-6h-6.93l-.55,6h-21l11-79.2H692.7M677.63,61.31H681l-1.1-10.67-.77-16.17-.55,16.17-1,10.67M692.7,1.54H665.31a4,4,0,0,0-4,3.45l-11,79.2a4,4,0,0,0,4,4.55h21a4,4,0,0,0,4-3.64l0-.34,0,.34a4,4,0,0,0,4,3.64h21a4,4,0,0,0,4-4.58L696.66,5a4,4,0,0,0-4-3.42Z"/><path d="M754.63,86.74a2,2,0,0,0-3.63,0H732.3a2,2,0,0,0-3.52,0H706.56a2,2,0,0,1-2-2V5.54a2,2,0,0,1,2-2H739a2,2,0,0,1,2,1.84l.72,8.89.68-8.88a2,2,0,0,1,2-1.85h32.12a2,2,0,0,1,2,2v79.2a2,2,0,0,1-2,2Z"/><path class="cls-1" d="M776.52,5.54v79.2H754.63v-14L758.15,23,751,84.74H732.3l-7.15-62.81,3.63,48.95V84.74H706.56V5.54H739l2.2,27.17.55,31.46.55-31.46L744.4,5.54h32.12m0-4H744.4a4,4,0,0,1-5.39,0H706.56a4,4,0,0,0-4,4v79.2a4,4,0,0,0,4,4h22.22a4,4,0,0,1,3.52,0H751a4.06,4.06,0,0,0,1.81-.43,4.1,4.1,0,0,0,1.82.43h21.89a4,4,0,0,0,4-4V5.54a4,4,0,0,0-4-4Z"/><path d="M780.92,86.74a2,2,0,0,1-2-2V5.54a2,2,0,0,1,2-2H818a2,2,0,0,1,2,2V26.22a2,2,0,0,1-2,2H804.26v4H818a2,2,0,0,1,2,2V55a2,2,0,0,1-2,2H804.26v4.47H818a2,2,0,0,1,2,2V84.74a2,2,0,0,1-2,2Z"/><path class="cls-1" d="M818,5.54V26.22H802.26v8H818V55H802.26v8.47H818V84.74H780.92V5.54H818m0-4H780.92a4,4,0,0,0-4,4v79.2a4,4,0,0,0,4,4H818a4,4,0,0,0,4-4V63.51a4,4,0,0,0-4-4H806.26V59H818a4,4,0,0,0,4-4V34.25a4,4,0,0,0-4-4H806.26v0H818a4,4,0,0,0,4-4V5.54a4,4,0,0,0-4-4Z"/><path d="M867.49,88c-17,0-25-8-25-25.21V27.32c0-16.73,8.59-25.21,25.54-25.21s24.55,7.77,24.55,25.21V40.08a2,2,0,0,1-2,2h-22l-.31,0v4l.31,0h22a2,2,0,0,1,2,2V62.74C892.59,79.23,883.91,88,867.49,88Z"/><path class="cls-1" d="M868,4.11c15.73,0,22.55,6.71,22.55,23.21V40.08h-22V27.32c0-4.18-.33-4.29-1.1-4.29-1.21,0-1.21.33-1.21,4.29V62c0,4,.22,4.29,1.21,4.29s1.1-.33,1.1-4.29V48h22V62.74c0,16.5-8.69,23.21-23.1,23.21-14.63,0-23-5.94-23-23.21V27.32C844.5,11.15,853,4.11,868,4.11m0-4c-18,0-27.54,9.41-27.54,27.21V62.74c0,18.31,8.82,27.21,27,27.21,17.72,0,27.1-9.41,27.1-27.21V48a4,4,0,0,0-3.44-4,4,4,0,0,0,3.44-4V27.32C894.59,8.76,886.15.11,868,.11Z"/><path d="M917.75,88c-17,0-25.21-8.25-25.21-25.21V27.32c0-16.49,8.72-25.21,25.21-25.21a33.42,33.42,0,0,1,12.86,2.46C938.83,8.29,943,15.94,943,27.32V62.74c0,6.22-1.06,11-3.26,14.58C935.8,84.35,928.4,88,917.75,88Z"/><path class="cls-1" d="M917.75,4.11a31.68,31.68,0,0,1,12.11,2.31c7,3.19,11.1,9.79,11.1,20.9V62.74c0,5.61-.88,10.12-3,13.53C934.15,83.2,927,86,917.75,86c-14.63,0-23.21-6.27-23.21-23.21V27.32c0-16.61,8.92-23.21,23.21-23.21m0,62.15c1.21,0,1.21-.33,1.21-4.29V27.32c0-4,0-4.29-1.21-4.29s-1.21.33-1.21,4.29V62c0,4,0,4.29,1.21,4.29m0-66.15c-8.45,0-15.08,2.17-19.68,6.44-5,4.64-7.53,11.62-7.53,20.77V62.74C890.54,80.8,899.7,90,917.75,90c11.39,0,19.36-3.92,23.7-11.66,2.37-3.9,3.51-9,3.51-15.55V27.32c0-12.24-4.52-20.5-13.45-24.54l-.15-.07A35.5,35.5,0,0,0,917.75.11Z"/><path d="M971.21,86.74a2,2,0,0,1-2-1.64l-1.1-6v5.62a2,2,0,0,1-2,2h-21a2,2,0,0,1-2-2V5.54a2,2,0,0,1,2-2h25.41a2,2,0,0,1,2,1.65l.65,3.64V5.54a2,2,0,0,1,2-2h20.46a2,2,0,0,1,2,2v79.2a2,2,0,0,1-2,2Z"/><path class="cls-1" d="M995.63,5.54v79.2H971.21l-9.57-52.36,4.51,34.54V84.74h-21V5.54h25.41l9.57,53.57-5-38.06V5.54h20.46m0-4H975.17a4,4,0,0,1-4.62,0H945.14a4,4,0,0,0-4,4v79.2a4,4,0,0,0,4,4h21a4,4,0,0,1,5.06,0h24.42a4,4,0,0,0,4-4V5.54a4,4,0,0,0-4-4Z"/><path d="M1046.34,86.74a2,2,0,0,0-2.2,0h-21.45a2,2,0,0,1-2-2V5.54a2,2,0,0,1,2-2h21.45a2,2,0,0,0,2.2,0h21.56a2,2,0,0,1,2,2v79.2a2,2,0,0,1-2,2Z"/><path class="cls-1" d="M1067.9,5.54v79.2h-21.56V55.15h-2.2V84.74h-21.45V5.54h21.45V34.69h2.2V5.54h21.56m0-4h-21.56a4.11,4.11,0,0,1-2.2,0h-21.45a4,4,0,0,0-4,4v79.2a4,4,0,0,0,4,4h21.45a4.11,4.11,0,0,1,2.2,0h21.56a4,4,0,0,0,4-4V5.54a4,4,0,0,0-4-4Z"/><path d="M1099.14,86.74a2,2,0,0,1-2-1.82l-.38-4.23h-3.28l-.39,4.23a2,2,0,0,1-2,1.82h-21a2,2,0,0,1-2-2.27l11-79.2a2,2,0,0,1,2-1.73h27.39a2,2,0,0,1,2,1.71l11.66,79.2a2.06,2.06,0,0,1-.46,1.6,2,2,0,0,1-1.52.69Z"/><path class="cls-1" d="M1108.49,5.54l11.66,79.2h-21l-.55-6h-6.93l-.55,6h-21l11-79.2h27.39m-15.07,55.77h3.41l-1.1-10.67L1095,34.47l-.55,16.17-1,10.67m15.07-59.77H1081.1a4,4,0,0,0-4,3.45l-11,79.2a4,4,0,0,0,4,4.55h21a4,4,0,0,0,4-3.64l0-.35,0,.35a4,4,0,0,0,4,3.64h21a4,4,0,0,0,4-4.58L1112.45,5a4,4,0,0,0-4-3.42Z"/><path d="M1144.13,88.17c-17.21,0-24.88-6.89-24.88-22.35V55.26a2,2,0,0,1,2-2h16.11l-2.2-1.19a59.65,59.65,0,0,1-9.37-6.28c-5.19-4.26-6.21-9.27-6.21-16.49V24.57c0-15,8.56-22.57,25.43-22.57,20.11,0,24.33,11.38,24.33,20.92v9.57a2,2,0,0,1-2,2h-15.17l1.17.65a61.75,61.75,0,0,1,9.75,6.24c4.88,4.26,6.58,8.43,6.58,16v8.47C1169.67,81.28,1161.79,88.17,1144.13,88.17Z"/><path class="cls-1" d="M1145,4c14.19,0,22.33,5.94,22.33,18.92v9.57h-21.45V24.35c0-2.53.11-3-1.1-3-.88,0-1.1.11-1.1,2.64v5.06a4.36,4.36,0,0,0,.44,2.2c.55,1.21,2.64,2.53,8.25,5.61a59.54,59.54,0,0,1,9.46,6c4.4,3.85,5.83,7.59,5.83,14.41v8.47c0,14.3-7,20.35-23.54,20.35s-22.88-6.38-22.88-20.35V55.26h22.22v9.9c0,1.87.33,2.31,1.1,2.31s1.21-.33,1.21-2.64V60.32a9.48,9.48,0,0,0-.44-3.41c-.55-1.76-2.86-3.19-9.24-6.6a57.38,57.38,0,0,1-9-6.05c-4.29-3.52-5.5-7.59-5.5-15V24.57C1121.58,11.15,1129,4,1145,4m0-4c-22.67,0-27.43,13.36-27.43,24.57V29.3c0,7.61,1.16,13.28,6.94,18a53.74,53.74,0,0,0,5.38,3.92h-8.65a4,4,0,0,0-4,4V65.82c0,16.61,8.54,24.35,26.88,24.35,18.79,0,27.54-7.74,27.54-24.35V57.35c0-8.11-2-12.83-7.2-17.42a.69.69,0,0,0-.13-.11,54.57,54.57,0,0,0-4.67-3.33h7.67a4,4,0,0,0,4-4V22.92c0-8.56-3.42-22.92-26.33-22.92Z"/><path d="M1194.29,86.74a2,2,0,0,1-2-2V5.54a2,2,0,0,1,2-2h22.33c16.9,0,24.77,6.89,24.77,21.69V48.44c0,15.2-8.07,23-24,23.33v13a2,2,0,0,1-2,2Z"/><path class="cls-1" d="M1216.62,5.54c16.61,0,22.77,6.71,22.77,19.69V48.44c0,13.42-6.27,21.34-22.88,21.34h-1.1v15h-21.12V5.54h22.33m-1.21,45.65c1.65,0,2.42-1.1,2.42-3.3V26.22c0-1.65-.55-3-2.42-3V51.19m1.21-49.65h-22.33a4,4,0,0,0-4,4v79.2a4,4,0,0,0,4,4h21.12a4,4,0,0,0,4-4v-11c7.75-.43,13.53-2.64,17.6-6.73,4.29-4.31,6.38-10.37,6.38-18.53V25.23c0-15.94-8.76-23.69-26.77-23.69Z"/><path d="M1243.68,86.74a2,2,0,0,1-2-2V5.54a2,2,0,0,1,2-2h22.44a2,2,0,0,1,2,2V60.63h9.66a2,2,0,0,1,2,2V84.74a2,2,0,0,1-2,2Z"/><path class="cls-1" d="M1266.12,5.54V62.63h11.66V84.74h-34.1V5.54h22.44m0-4h-22.44a4,4,0,0,0-4,4v79.2a4,4,0,0,0,4,4h34.1a4,4,0,0,0,4-4V62.63a4,4,0,0,0-4-4h-7.66V5.54a4,4,0,0,0-4-4Z"/><path d="M1309.24,86.74a2,2,0,0,1-2-1.82l-.39-4.23h-3.28l-.38,4.23a2,2,0,0,1-2,1.82h-21a2,2,0,0,1-2-2.27l11-79.2a2,2,0,0,1,2-1.73h27.39a2,2,0,0,1,2,1.71l11.66,79.2a2,2,0,0,1-.47,1.6,2,2,0,0,1-1.51.69Z"/><path class="cls-1" d="M1318.59,5.54l11.66,79.2h-21l-.55-6h-6.93l-.55,6h-21l11-79.2h27.39m-15.07,55.77h3.41l-1.1-10.67-.77-16.17-.55,16.17-1,10.67m15.07-59.77H1291.2a4,4,0,0,0-4,3.45l-11,79.2a4,4,0,0,0,4,4.55h21a4,4,0,0,0,4-3.64l0-.35,0,.35a4,4,0,0,0,4,3.64h21a4,4,0,0,0,4-4.58L1322.54,5a4,4,0,0,0-4-3.42Z"/><path d="M1336,86.74a2,2,0,0,1-2-2V63.53L1320.05,6a2,2,0,0,1,2-2.47h21.89a2,2,0,0,1,2,1.68l1.35,8.39,1.53-8.43a2,2,0,0,1,2-1.64h21.67a2,2,0,0,1,1.58.77,2,2,0,0,1,.36,1.72l-14,55.31v23.4a2,2,0,0,1-2,2Z"/><path class="cls-1" d="M1372.38,5.54,1358.3,61.09V84.74H1336V63.29L1322,5.54h21.89l2.64,16.39.77,17,.44-17,3-16.39h21.67m0-4h-21.67a4,4,0,0,1-6.82,0H1322a4,4,0,0,0-3.89,4.94L1332,63.77v21a4,4,0,0,0,4,4h22.33a4,4,0,0,0,4-4V61.59l14-55.07a4,4,0,0,0-3.87-5Z"/><path d="M1373.92,86.74a2,2,0,0,1-2-2V5.54a2,2,0,0,1,2-2H1411a2,2,0,0,1,2,2V26.22a2,2,0,0,1-2,2h-13.73v4H1411a2,2,0,0,1,2,2V55a2,2,0,0,1-2,2h-13.73v4.47H1411a2,2,0,0,1,2,2V84.74a2,2,0,0,1-2,2Z"/><path class="cls-1" d="M1411,5.54V26.22h-15.73v8H1411V55h-15.73v8.47H1411V84.74h-37.07V5.54H1411m0-4h-37.07a4,4,0,0,0-4,4v79.2a4,4,0,0,0,4,4H1411a4,4,0,0,0,4-4V63.51a4,4,0,0,0-4-4h-11.73V59H1411a4,4,0,0,0,4-4V34.25a4,4,0,0,0-4-4h-11.73v0H1411a4,4,0,0,0,4-4V5.54a4,4,0,0,0-4-4Z"/><path d="M1415.16,86.74a2,2,0,0,1-2-2V5.54a2,2,0,0,1,2-2H1438A36.21,36.21,0,0,1,1451,5.76c8.33,3.51,12.51,10.94,12.51,22.11V62.3c0,6.12-1.11,10.8-3.4,14.3-4.26,6.72-11.78,10.14-22.36,10.14Z"/><path class="cls-1" d="M1438,5.54a34.15,34.15,0,0,1,12.21,2.09c7,3,11.22,9.13,11.22,20.24V62.3c0,5.61-1,10-3.08,13.2-4.18,6.6-11.55,9.24-20.68,9.24h-22.55V5.54H1438m-1.43,60.39c2.09,0,2.42-.33,2.42-3.85V27c0-2.75-.44-3.19-2.31-3.19h-.11V65.93M1438,1.54h-22.88a4,4,0,0,0-4,4v79.2a4,4,0,0,0,4,4h22.55c11.29,0,19.38-3.73,24-11.07,2.5-3.84,3.71-8.86,3.71-15.37V27.87c0-12-4.59-20.1-13.66-23.93l-.15-.06A38.31,38.31,0,0,0,1438,1.54Z"/><path d="M55.7,206.75a2,2,0,0,1-2-1.82l-.39-4.23H50.05l-.39,4.23a2,2,0,0,1-2,1.82h-21a2,2,0,0,1-2-2.27l11-79.2a2,2,0,0,1,2-1.73H65.05a2,2,0,0,1,2,1.71l11.66,79.2a2,2,0,0,1-.47,1.6,2,2,0,0,1-1.51.69Z"/><path class="cls-1" d="M65.05,125.55l11.66,79.2h-21l-.55-6.05H48.22l-.55,6.05h-21l11-79.2H65.05M50,181.32h3.41l-1.1-10.67-.77-16.17L51,170.65l-1,10.67m15.07-59.77H37.66a4,4,0,0,0-4,3.45l-11,79.2a4,4,0,0,0,4,4.55h21a4,4,0,0,0,4-3.64l0-.34,0,.34a4,4,0,0,0,4,3.64h21a4,4,0,0,0,4-4.58L69,125a4,4,0,0,0-4-3.42Z"/><path d="M101.57,206.75a2,2,0,0,1-2-2v-79.2a2,2,0,0,1,2-2H123.9c16.9,0,24.77,6.89,24.77,21.69v23.21c0,15.2-8.07,23.05-24,23.33v13a2,2,0,0,1-2,2Z"/><path class="cls-1" d="M123.9,125.55c16.61,0,22.77,6.71,22.77,19.69v23.21c0,13.42-6.27,21.34-22.88,21.34h-1.1v15H101.57v-79.2H123.9m-1.21,45.65c1.65,0,2.42-1.1,2.42-3.3V146.23c0-1.65-.55-3-2.42-3V171.2m1.21-49.65H101.57a4,4,0,0,0-4,4v79.2a4,4,0,0,0,4,4h21.12a4,4,0,0,0,4-4v-11c7.75-.43,13.53-2.64,17.6-6.73,4.29-4.31,6.38-10.37,6.38-18.53V145.24c0-15.94-8.76-23.69-26.77-23.69Z"/><path d="M174.72,206.75a2,2,0,0,1-2-1.82l-.39-4.23h-3.28l-.38,4.23a2,2,0,0,1-2,1.82h-21a2,2,0,0,1-2-2.27l11-79.2a2,2,0,0,1,2-1.73h27.39a2,2,0,0,1,2,1.71l11.66,79.2a2,2,0,0,1-.47,1.6,2,2,0,0,1-1.51.69Z"/><path class="cls-1" d="M184.07,125.55l11.66,79.2h-21l-.55-6.05h-6.93l-.55,6.05h-21l11-79.2h27.39M169,181.32h3.41l-1.1-10.67-.77-16.17L170,170.65l-1,10.67m15.07-59.77H156.68a4,4,0,0,0-4,3.45l-11,79.2a4,4,0,0,0,4,4.55h21a4,4,0,0,0,4-3.64l0-.34,0,.34a4,4,0,0,0,4,3.64h21a4,4,0,0,0,4-4.58L188,125a4,4,0,0,0-4-3.42Z"/><path d="M222.9,206.75a2,2,0,0,1-.83-.18,3.46,3.46,0,0,1-1.16-.85,2,2,0,0,1-1.75,1H197.82a2,2,0,0,1-2-2v-79.2a2,2,0,0,1,2-2h23.43a41.74,41.74,0,0,1,12.6,1.64c7.17,2.17,10.52,8.34,10.52,19.39v10.78c0,6-.79,10.45-4.18,13.22,3.61,2.71,4,7.08,4,12.3V198.7c0,3.62.25,4,.89,4.58a2,2,0,0,1-1.35,3.47Z"/><path class="cls-1" d="M221.25,125.55a40.21,40.21,0,0,1,12,1.54c6.16,1.87,9.13,7,9.13,17.49v10.78c0,7.92-1.43,11.55-6.49,13.31,5.28,1.65,6.27,5,6.27,12.21V198.7c0,3.63.22,4.84,1.54,6.05H222.9c-1.21-.55-1.43-2.75-1.43-5.94v-17.6c0-2.75-.66-3.3-2.31-3.41v26.95H197.82v-79.2h23.43m-2.09,34.65c2.09-.11,2.42-.88,2.42-2.75V146c0-2.09-.44-2.64-2.2-2.64h-.22V160.2m2.09-38.65H197.82a4,4,0,0,0-4,4v79.2a4,4,0,0,0,4,4h21.34a4.07,4.07,0,0,0,1.87-.46l.21.1a4,4,0,0,0,1.66.36h20.79a4,4,0,0,0,2.7-6.95l-.07-.07a14,14,0,0,1-.17-3V180.88c0-4.68-.32-9.13-3.08-12.34,3-3.6,3.3-8.56,3.3-13.18V144.58c0-7.58-1.24-18-11.94-21.31a44,44,0,0,0-13.18-1.72Z"/><path d="M253.92,206.75a2,2,0,0,1-2-2V148.12h-6.25a2,2,0,0,1-2-2V125.55a2,2,0,0,1,2-2h38.72a2,2,0,0,1,2,2v20.57a2,2,0,0,1-2,2h-6.25v56.63a2,2,0,0,1-2,2Z"/><path class="cls-1" d="M284.39,125.55v20.57h-8.25v58.63H253.92V146.12h-8.25V125.55h38.72m0-4H245.67a4,4,0,0,0-4,4v20.57a4,4,0,0,0,4,4h4.25v54.63a4,4,0,0,0,4,4h22.22a4,4,0,0,0,4-4V150.12h4.25a4,4,0,0,0,4-4V125.55a4,4,0,0,0-4-4Z"/><rect x="309.12" y="123.55" width="26.33" height="83.2" rx="2"/><path class="cls-1" d="M333.45,125.55v79.2H311.12v-79.2h22.33m0-4H311.12a4,4,0,0,0-4,4v79.2a4,4,0,0,0,4,4h22.33a4,4,0,0,0,4-4v-79.2a4,4,0,0,0-4-4Z"/><path d="M364,206.75a2,2,0,0,1-2-1.64l-1.1-6v5.62a2,2,0,0,1-2,2H338a2,2,0,0,1-2-2v-79.2a2,2,0,0,1,2-2h25.41a2,2,0,0,1,2,1.65l.65,3.64v-3.29a2,2,0,0,1,2-2h20.46a2,2,0,0,1,2,2v79.2a2,2,0,0,1-2,2Z"/><path class="cls-1" d="M388.44,125.55v79.2H364l-9.57-52.36L359,186.93v17.82H338v-79.2h25.41l9.57,53.57L368,141.06V125.55h20.46m0-4H368a4,4,0,0,0-2.31.74,3.93,3.93,0,0,0-2.31-.74H338a4,4,0,0,0-4,4v79.2a4,4,0,0,0,4,4h21a4,4,0,0,0,2.53-.9,4,4,0,0,0,2.53.9h24.42a4,4,0,0,0,4-4v-79.2a4,4,0,0,0-4-4Z"/><path d="M443,206.75a2,2,0,0,1-1.95-1.57l-2-9v8.6a2,2,0,0,1-2,2H415.61a2,2,0,0,1-2-2v-79.2a2,2,0,0,1,2-2h21.45a2,2,0,0,1,2,2v7.24l2.36-7.82a2,2,0,0,1,1.91-1.42h23.1a2,2,0,0,1,1.63.83,2,2,0,0,1,.27,1.81l-11.14,33.2,11.62,44.86a2,2,0,0,1-1.94,2.5Z"/><path class="cls-1" d="M466.43,125.55,455.1,159.32l11.77,45.43H443l-4.84-22-.88-9-.22,1.87v29.15H415.61v-79.2h21.45v14.63l-2,16.28,3.41-14.85,4.84-16.06h23.1m0-4h-23.1a4,4,0,0,0-3.13,1.52,4,4,0,0,0-3.14-1.52H415.61a4,4,0,0,0-4,4v79.2a4,4,0,0,0,4,4h21.45a4,4,0,0,0,3-1.32,4,4,0,0,0,3,1.32h23.87a4,4,0,0,0,3.87-5l-11.47-44.28,11-32.65a4,4,0,0,0-3.79-5.27Z"/><path d="M468.74,206.75a2,2,0,0,1-2-2v-79.2a2,2,0,0,1,2-2h37.07a2,2,0,0,1,2,2v20.68a2,2,0,0,1-2,2H492.08v4h13.73a2,2,0,0,1,2,2v20.79a2,2,0,0,1-2,2H492.08v4.47h13.73a2,2,0,0,1,2,2v21.23a2,2,0,0,1-2,2Z"/><path class="cls-1" d="M505.81,125.55v20.68H490.08v8h15.73v20.79H490.08v8.47h15.73v21.23H468.74v-79.2h37.07m0-4H468.74a4,4,0,0,0-4,4v79.2a4,4,0,0,0,4,4h37.07a4,4,0,0,0,4-4V183.52a4,4,0,0,0-4-4H494.08v-.47h11.73a4,4,0,0,0,4-4V154.26a4,4,0,0,0-4-4H494.08v0h11.73a4,4,0,0,0,4-4V125.55a4,4,0,0,0-4-4Z"/><path d="M510,206.75a2,2,0,0,1-2-2v-79.2a2,2,0,0,1,2-2h37.07a2,2,0,0,1,2,2v20.68a2,2,0,0,1-2,2H533.33v4h13.73a2,2,0,0,1,2,2v20.79a2,2,0,0,1-2,2H533.33v4.47h13.73a2,2,0,0,1,2,2v21.23a2,2,0,0,1-2,2Z"/><path class="cls-1" d="M547.06,125.55v20.68H531.33v8h15.73v20.79H531.33v8.47h15.73v21.23H510v-79.2h37.07m0-4H510a4,4,0,0,0-4,4v79.2a4,4,0,0,0,4,4h37.07a4,4,0,0,0,4-4V183.52a4,4,0,0,0-4-4H535.33v-.47h11.73a4,4,0,0,0,4-4V154.26a4,4,0,0,0-4-4H535.33v0h11.73a4,4,0,0,0,4-4V125.55a4,4,0,0,0-4-4Z"/><path d="M551.24,206.75a2,2,0,0,1-2-2v-79.2a2,2,0,0,1,2-2h22.33c16.9,0,24.77,6.89,24.77,21.69v23.21c0,15.2-8.07,23.05-24,23.33v13a2,2,0,0,1-2,2Z"/><path class="cls-1" d="M573.57,125.55c16.61,0,22.77,6.71,22.77,19.69v23.21c0,13.42-6.27,21.34-22.88,21.34h-1.1v15H551.24v-79.2h22.33m-1.21,45.65c1.65,0,2.42-1.1,2.42-3.3V146.23c0-1.65-.55-3-2.42-3V171.2m1.21-49.65H551.24a4,4,0,0,0-4,4v79.2a4,4,0,0,0,4,4h21.12a4,4,0,0,0,4-4v-11c7.75-.43,13.53-2.64,17.6-6.73,4.29-4.31,6.38-10.37,6.38-18.53V145.24c0-15.94-8.76-23.69-26.77-23.69Z"/><rect x="598.74" y="123.55" width="26.33" height="83.2" rx="2"/><path class="cls-1" d="M623.07,125.55v79.2H600.74v-79.2h22.33m0-4H600.74a4,4,0,0,0-4,4v79.2a4,4,0,0,0,4,4h22.33a4,4,0,0,0,4-4v-79.2a4,4,0,0,0-4-4Z"/><path d="M653.65,206.75a2,2,0,0,1-2-1.64l-1.09-6v5.62a2,2,0,0,1-2,2h-21a2,2,0,0,1-2-2v-79.2a2,2,0,0,1,2-2H653a2,2,0,0,1,2,1.65l.65,3.64v-3.29a2,2,0,0,1,2-2h20.46a2,2,0,0,1,2,2v79.2a2,2,0,0,1-2,2Z"/><path class="cls-1" d="M678.07,125.55v79.2H653.65l-9.57-52.36,4.51,34.54v17.82h-21v-79.2H653l9.57,53.57-4.95-38.06V125.55h20.46m0-4H657.61a3.93,3.93,0,0,0-2.31.74,4,4,0,0,0-2.31-.74H627.58a4,4,0,0,0-4,4v79.2a4,4,0,0,0,4,4h21a4,4,0,0,1,5.06,0h24.42a4,4,0,0,0,4-4v-79.2a4,4,0,0,0-4-4Z"/><path d="M697.43,208c-14.26,0-17.18-9.94-17.18-24.88v-36c0-16.28,8.83-24.88,25.54-24.88,17.43,0,25.21,7.57,25.21,24.55v6.82a2,2,0,0,1-1.72,2,2,2,0,0,1,1.72,2v47.19a2,2,0,0,1-2,2H711.29a2,2,0,0,1-2-1.83l-.15-1.9C706.62,206.36,702.77,208,697.43,208ZM706.67,185h.11a10.27,10.27,0,0,0,.31-3.28v-1.08h-.84v1.08a11.89,11.89,0,0,0,.26,3.28Zm-.4-29.48h0Z"/><path class="cls-1" d="M705.79,124.23c16,0,23.21,6.38,23.21,22.55v6.82H706.67v-7.15c0-3.41-.22-3.41-1.21-3.41s-1.21.11-1.21,3.63v35.09c0,4.29.55,5.28,2.42,5.28s2.42-1,2.42-5.28v-3.08H705.9V157.56H729v47.19H711.29l-.88-10.67c-1.21,7.81-4.73,11.88-13,11.88-11.22,0-15.18-6.38-15.18-22.88v-36c0-16.5,9.13-22.88,23.54-22.88m0-4c-18,0-27.54,9.3-27.54,26.88v36c0,9.44,1.24,15.55,4,19.82,3.11,4.75,8.06,7.06,15.15,7.06,4.34,0,7.85-1,10.54-3a4,4,0,0,0,3.32,1.76H729a4,4,0,0,0,4-4V157.56a3.91,3.91,0,0,0-.53-2,3.91,3.91,0,0,0,.53-2v-6.82c0-18.11-8.65-26.55-27.21-26.55Z"/><path d="M779,208c-17,0-25.21-8.25-25.21-25.21V147.33c0-16.49,8.72-25.21,25.21-25.21a33.42,33.42,0,0,1,12.86,2.46c8.22,3.72,12.35,11.37,12.35,22.75v35.42c0,6.22-1.06,11-3.26,14.58C797.08,204.36,789.69,208,779,208Z"/><path class="cls-1" d="M779,124.12a31.63,31.63,0,0,1,12.1,2.31c7,3.19,11.11,9.79,11.11,20.9v35.42c0,5.61-.87,10.12-3,13.53-3.85,6.93-11,9.68-20.24,9.68-14.63,0-23.21-6.27-23.21-23.21V147.33c0-16.61,8.91-23.21,23.21-23.21m0,62.15c1.21,0,1.21-.33,1.21-4.29V147.33c0-4,0-4.29-1.21-4.29s-1.21.33-1.21,4.29V182c0,4,0,4.29,1.21,4.29m0-66.15c-8.45,0-15.08,2.17-19.68,6.44-5,4.64-7.53,11.62-7.53,20.77v35.42C751.83,200.81,761,210,779,210c11.39,0,19.36-3.92,23.7-11.66,2.36-3.9,3.51-9,3.51-15.55V147.33c0-12.24-4.52-20.5-13.45-24.54l-.15-.07a35.57,35.57,0,0,0-13.61-2.6Z"/><path d="M829.31,208c-17.2,0-24.88-7.88-24.88-25.54V125.55a2,2,0,0,1,2-2h21.78a2,2,0,0,1,1.1.33,2,2,0,0,1,1.1-.33H852.3a2,2,0,0,1,2,2v56.87C854.3,199.61,846.13,208,829.31,208Z"/><path class="cls-1" d="M852.3,125.55v56.87c0,16.06-7,23.54-23,23.54-16.94,0-22.88-7.81-22.88-23.54V125.55h21.78V181.1c0,3.85.11,4.07,1.1,4.07s1.1-.11,1.1-4.07V125.55H852.3m0-4H830.41a4.11,4.11,0,0,1-2.2,0H806.43a4,4,0,0,0-4,4v56.87c0,18.79,8.54,27.54,26.88,27.54,9.16,0,15.82-2.28,20.35-7s6.64-11.35,6.64-20.58V125.55a4,4,0,0,0-4-4Z"/><path d="M881.67,206.75a2,2,0,0,1-.82-.18,3.5,3.5,0,0,1-1.17-.85,2,2,0,0,1-1.75,1H856.59a2,2,0,0,1-2-2v-79.2a2,2,0,0,1,2-2H880a41.65,41.65,0,0,1,12.6,1.64c7.17,2.17,10.52,8.34,10.52,19.39v10.78c0,6-.78,10.45-4.17,13.22,3.6,2.71,3.95,7.08,3.95,12.3V198.7c0,3.61.26,4,.89,4.58a2,2,0,0,1-1.35,3.47Z"/><path class="cls-1" d="M880,125.55a40.21,40.21,0,0,1,12,1.54c6.16,1.87,9.13,7,9.13,17.49v10.78c0,7.92-1.43,11.55-6.49,13.31,5.28,1.65,6.27,5,6.27,12.21V198.7c0,3.63.22,4.84,1.54,6.05H881.67c-1.21-.55-1.43-2.75-1.43-5.94v-17.6c0-2.75-.66-3.3-2.31-3.41v26.95H856.59v-79.2H880m-2.09,34.65c2.09-.11,2.42-.88,2.42-2.75V146c0-2.09-.44-2.64-2.2-2.64h-.22V160.2M880,121.55H856.59a4,4,0,0,0-4,4v79.2a4,4,0,0,0,4,4h21.34a4,4,0,0,0,1.87-.46l.22.1a3.92,3.92,0,0,0,1.65.36h20.79a4,4,0,0,0,2.71-6.95.22.22,0,0,1-.07-.07,12.9,12.9,0,0,1-.18-3V180.88c0-4.68-.31-9.13-3.07-12.34,3-3.6,3.29-8.56,3.29-13.18V144.58c0-7.58-1.23-18-11.93-21.31A44,44,0,0,0,880,121.55Z"/><path d="M950.64,208c-17,0-25-8-25-25.21V147.33c0-16.73,8.59-25.21,25.54-25.21s24.55,7.78,24.55,25.21v12.76a2,2,0,0,1-2,2h-22l-.31,0v4l.31,0h22a2,2,0,0,1,2,2v14.74C975.74,199.24,967.06,208,950.64,208Z"/><path class="cls-1" d="M951.19,124.12c15.73,0,22.55,6.71,22.55,23.21v12.76h-22V147.33c0-4.18-.33-4.29-1.1-4.29-1.21,0-1.21.33-1.21,4.29V182c0,4,.22,4.29,1.21,4.29s1.1-.33,1.1-4.29V168h22v14.74c0,16.5-8.69,23.21-23.1,23.21-14.63,0-23-5.94-23-23.21V147.33c0-16.17,8.47-23.21,23.54-23.21m0-4c-18,0-27.54,9.41-27.54,27.21v35.42c0,18.31,8.83,27.21,27,27.21,17.73,0,27.1-9.41,27.1-27.21V168a4,4,0,0,0-3.43-4,4,4,0,0,0,3.43-4V147.33c0-18.56-8.43-27.21-26.55-27.21Z"/><path d="M1000.91,208c-17,0-25.21-8.25-25.21-25.21V147.33c0-16.49,8.72-25.21,25.21-25.21a33.37,33.37,0,0,1,12.85,2.46c8.23,3.72,12.36,11.37,12.36,22.75v35.42c0,6.22-1.07,11-3.26,14.58C1019,204.36,1011.55,208,1000.91,208Z"/><path class="cls-1" d="M1000.91,124.12a31.63,31.63,0,0,1,12.1,2.31c7,3.19,11.11,9.79,11.11,20.9v35.42c0,5.61-.88,10.12-3,13.53-3.85,6.93-11,9.68-20.24,9.68-14.63,0-23.21-6.27-23.21-23.21V147.33c0-16.61,8.91-23.21,23.21-23.21m0,62.15c1.21,0,1.21-.33,1.21-4.29V147.33c0-4,0-4.29-1.21-4.29s-1.21.33-1.21,4.29V182c0,4,0,4.29,1.21,4.29m0-66.15c-8.46,0-15.08,2.17-19.69,6.44-5,4.64-7.52,11.62-7.52,20.77v35.42c0,18.06,9.15,27.21,27.21,27.21,11.39,0,19.36-3.92,23.7-11.66,2.36-3.9,3.51-9,3.51-15.55V147.33c0-12.24-4.53-20.5-13.46-24.54l-.14-.07a35.57,35.57,0,0,0-13.61-2.6Z"/><path d="M1076.37,206.75a2,2,0,0,0-3.63,0H1054a2,2,0,0,0-3.52,0H1028.3a2,2,0,0,1-2-2v-79.2a2,2,0,0,1,2-2h32.45a2,2,0,0,1,2,1.84l.72,8.89.69-8.88a2,2,0,0,1,2-1.85h32.12a2,2,0,0,1,2,2v79.2a2,2,0,0,1-2,2Z"/><path class="cls-1" d="M1098.26,125.55v79.2h-21.89v-14l3.52-47.74-7.15,61.71H1054l-7.15-62.81,3.63,48.95v13.86H1028.3v-79.2h32.45l2.2,27.17.55,31.46.55-31.46,2.09-27.17h32.12m0-4h-32.12a4,4,0,0,0-2.7,1,3.94,3.94,0,0,0-2.69-1H1028.3a4,4,0,0,0-4,4v79.2a4,4,0,0,0,4,4h22.22a4,4,0,0,0,1.76-.41,3.86,3.86,0,0,0,1.76.41h18.7a4.06,4.06,0,0,0,1.81-.43,4.13,4.13,0,0,0,1.82.43h21.89a4,4,0,0,0,4-4v-79.2a4,4,0,0,0-4-4Z"/><path d="M1150.73,206.75a2,2,0,0,0-3.63,0h-18.7a2,2,0,0,0-3.52,0h-22.22a2,2,0,0,1-2-2v-79.2a2,2,0,0,1,2-2h32.45a2,2,0,0,1,2,1.84l.72,8.89.68-8.88a2,2,0,0,1,2-1.85h32.12a2,2,0,0,1,2,2v79.2a2,2,0,0,1-2,2Z"/><path class="cls-1" d="M1172.62,125.55v79.2h-21.89v-14l3.52-47.74-7.15,61.71h-18.7l-7.15-62.81,3.63,48.95v13.86h-22.22v-79.2h32.45l2.2,27.17.55,31.46.55-31.46,2.09-27.17h32.12m0-4H1140.5a4,4,0,0,1-5.39,0h-32.45a4,4,0,0,0-4,4v79.2a4,4,0,0,0,4,4h22.22a4,4,0,0,0,1.76-.41,3.86,3.86,0,0,0,1.76.41h18.7a4.06,4.06,0,0,0,1.81-.43,4.1,4.1,0,0,0,1.82.43h21.89a4,4,0,0,0,4-4v-79.2a4,4,0,0,0-4-4Z"/><path d="M1199.79,208c-17.21,0-24.88-7.88-24.88-25.54V125.55a2,2,0,0,1,2-2h21.78a2,2,0,0,1,1.1.33,2,2,0,0,1,1.1-.33h21.89a2,2,0,0,1,2,2v56.87C1224.78,199.61,1216.6,208,1199.79,208Z"/><path class="cls-1" d="M1222.78,125.55v56.87c0,16.06-7,23.54-23,23.54-16.94,0-22.88-7.81-22.88-23.54V125.55h21.78V181.1c0,3.85.11,4.07,1.1,4.07s1.1-.11,1.1-4.07V125.55h21.89m0-4h-21.89a4.11,4.11,0,0,1-2.2,0h-21.78a4,4,0,0,0-4,4v56.87c0,18.79,8.54,27.54,26.88,27.54,9.15,0,15.81-2.28,20.35-7s6.64-11.35,6.64-20.58V125.55a4,4,0,0,0-4-4Z"/><path d="M1253.14,206.75a2,2,0,0,1-2-1.64l-1.09-6v5.62a2,2,0,0,1-2,2h-21a2,2,0,0,1-2-2v-79.2a2,2,0,0,1,2-2h25.41a2,2,0,0,1,2,1.65l.65,3.64v-3.29a2,2,0,0,1,2-2h20.46a2,2,0,0,1,2,2v79.2a2,2,0,0,1-2,2Z"/><path class="cls-1" d="M1277.56,125.55v79.2h-24.42l-9.57-52.36,4.51,34.54v17.82h-21v-79.2h25.41l9.57,53.57-5-38.06V125.55h20.46m0-4H1257.1a3.93,3.93,0,0,0-2.31.74,4,4,0,0,0-2.31-.74h-25.41a4,4,0,0,0-4,4v79.2a4,4,0,0,0,4,4h21a4,4,0,0,1,5.06,0h24.42a4,4,0,0,0,4-4v-79.2a4,4,0,0,0-4-4Z"/><rect x="1280.07" y="123.55" width="26.33" height="83.2" rx="2"/><path class="cls-1" d="M1304.4,125.55v79.2h-22.33v-79.2h22.33m0-4h-22.33a4,4,0,0,0-4,4v79.2a4,4,0,0,0,4,4h22.33a4,4,0,0,0,4-4v-79.2a4,4,0,0,0-4-4Z"/><path d="M1316.71,206.75a2,2,0,0,1-2-2V148.12h-6.25a2,2,0,0,1-2-2V125.55a2,2,0,0,1,2-2h38.72a2,2,0,0,1,2,2v20.57a2,2,0,0,1-2,2h-6.25v56.63a2,2,0,0,1-2,2Z"/><path class="cls-1" d="M1347.18,125.55v20.57h-8.25v58.63h-22.22V146.12h-8.25V125.55h38.72m0-4h-38.72a4,4,0,0,0-4,4v20.57a4,4,0,0,0,4,4h4.25v54.63a4,4,0,0,0,4,4h22.22a4,4,0,0,0,4-4V150.12h4.25a4,4,0,0,0,4-4V125.55a4,4,0,0,0-4-4Z"/><path d="M1362.58,206.75a2,2,0,0,1-2-2V183.54L1346.67,126a2,2,0,0,1,1.94-2.47h21.89a2,2,0,0,1,2,1.68l1.35,8.39,1.53-8.43a2,2,0,0,1,2-1.64H1399a2,2,0,0,1,1.93,2.49l-14,55.31v23.4a2,2,0,0,1-2,2Z"/><path class="cls-1" d="M1399,125.55l-14.08,55.55v23.65h-22.34V183.3l-14-57.75h21.89l2.64,16.39.77,17.05.44-17.05,3-16.39H1399m0-4h-21.68a4,4,0,0,1-6.82,0h-21.89a4,4,0,0,0-3.88,4.94l13.85,57.29v21a4,4,0,0,0,4,4h22.34a4,4,0,0,0,4-4V181.6l13.95-55.07a4,4,0,0,0-3.87-5Z"/><path d="M52.84,328c-17.05,0-25-8-25-25.21V267.34c0-16.73,8.59-25.21,25.54-25.21s24.55,7.78,24.55,25.21V280.1a2,2,0,0,1-2,2h-22l-.31,0v4l.31,0h22a2,2,0,0,1,2,2v14.74C77.94,319.25,69.26,328,52.84,328Z"/><path class="cls-1" d="M53.39,244.13c15.73,0,22.55,6.71,22.55,23.21V280.1h-22V267.34c0-4.18-.33-4.29-1.1-4.29-1.21,0-1.21.33-1.21,4.29V302c0,4,.22,4.29,1.21,4.29s1.1-.33,1.1-4.29V288h22v14.74c0,16.5-8.69,23.21-23.1,23.21-14.63,0-23-5.94-23-23.21V267.34c0-16.17,8.47-23.21,23.54-23.21m0-4c-18,0-27.54,9.41-27.54,27.21v35.42c0,18.31,8.83,27.21,27,27.21,17.73,0,27.1-9.41,27.1-27.21V288a4,4,0,0,0-3.43-4,4,4,0,0,0,3.43-4V267.34c0-18.56-8.44-27.21-26.55-27.21Z"/><path d="M103.11,328c-17,0-25.21-8.25-25.21-25.21V267.34c0-16.49,8.72-25.21,25.21-25.21A33.37,33.37,0,0,1,116,244.59c8.23,3.72,12.36,11.37,12.36,22.75v35.42c0,6.22-1.07,11-3.27,14.58C121.15,324.37,113.75,328,103.11,328Z"/><path class="cls-1" d="M103.11,244.13a31.63,31.63,0,0,1,12.1,2.31c7,3.19,11.11,9.79,11.11,20.9v35.42c0,5.61-.88,10.12-3,13.53-3.85,6.93-11,9.68-20.24,9.68-14.63,0-23.21-6.27-23.21-23.21V267.34c0-16.61,8.91-23.21,23.21-23.21m0,62.15c1.21,0,1.21-.33,1.21-4.29V267.34c0-4,0-4.29-1.21-4.29s-1.21.33-1.21,4.29V302c0,4,0,4.29,1.21,4.29m0-66.15c-8.46,0-15.08,2.17-19.69,6.44-5,4.64-7.52,11.62-7.52,20.77v35.42c0,18.06,9.15,27.21,27.21,27.21,11.39,0,19.36-3.92,23.69-11.66,2.37-3.9,3.52-9,3.52-15.55V267.34c0-12.24-4.53-20.5-13.46-24.54l-.15-.07a35.48,35.48,0,0,0-13.6-2.6Z"/><path d="M156.57,326.76a2,2,0,0,1-2-1.64l-1.09-6v5.62a2,2,0,0,1-2,2h-21a2,2,0,0,1-2-2v-79.2a2,2,0,0,1,2-2h25.41a2,2,0,0,1,2,1.65l.65,3.64v-3.29a2,2,0,0,1,2-2H181a2,2,0,0,1,2,2v79.2a2,2,0,0,1-2,2Z"/><path class="cls-1" d="M181,245.56v79.2H156.57L147,272.4l4.51,34.54v17.82h-21v-79.2h25.41l9.57,53.57-4.95-38.06V245.56H181m0-4H160.53a4,4,0,0,0-2.31.73,4,4,0,0,0-2.31-.73H130.5a4,4,0,0,0-4,4v79.2a4,4,0,0,0,4,4h21a4,4,0,0,0,2.53-.9,4,4,0,0,0,2.53.9H181a4,4,0,0,0,4-4v-79.2a4,4,0,0,0-4-4Z"/><path d="M211.46,326.76a2,2,0,0,1-2-1.64l-1.09-6v5.62a2,2,0,0,1-2,2h-21a2,2,0,0,1-2-2v-79.2a2,2,0,0,1,2-2H210.8a2,2,0,0,1,2,1.65l.65,3.64v-3.29a2,2,0,0,1,2-2h20.46a2,2,0,0,1,2,2v79.2a2,2,0,0,1-2,2Z"/><path class="cls-1" d="M235.88,245.56v79.2H211.46l-9.57-52.36,4.51,34.54v17.82h-21v-79.2H210.8l9.57,53.57-5-38.06V245.56h20.46m0-4H215.42a4,4,0,0,0-2.31.73,4,4,0,0,0-2.31-.73H185.39a4,4,0,0,0-4,4v79.2a4,4,0,0,0,4,4h21a4,4,0,0,0,2.53-.9,4,4,0,0,0,2.53.9h24.42a4,4,0,0,0,4-4v-79.2a4,4,0,0,0-4-4Z"/><path d="M240.28,326.76a2,2,0,0,1-2-2v-79.2a2,2,0,0,1,2-2h37.07a2,2,0,0,1,2,2v20.68a2,2,0,0,1-2,2H263.62v4h13.73a2,2,0,0,1,2,2v20.79a2,2,0,0,1-2,2H263.62v4.47h13.73a2,2,0,0,1,2,2v21.23a2,2,0,0,1-2,2Z"/><path class="cls-1" d="M277.35,245.56v20.68H261.62v8h15.73v20.79H261.62v8.47h15.73v21.23H240.28v-79.2h37.07m0-4H240.28a4,4,0,0,0-4,4v79.2a4,4,0,0,0,4,4h37.07a4,4,0,0,0,4-4V303.53a4,4,0,0,0-4-4H265.62v-.47h11.73a4,4,0,0,0,4-4V274.27a4,4,0,0,0-4-4H265.62v0h11.73a4,4,0,0,0,4-4V245.56a4,4,0,0,0-4-4Z"/><path d="M304.19,328c-17.05,0-25-8-25-25.21V267.34c0-16.73,8.6-25.21,25.54-25.21s24.56,7.78,24.56,25.21V280.1a2,2,0,0,1-2,2h-22l-.31,0v4l.31,0h22a2,2,0,0,1,2,2v14.74C329.29,319.25,320.61,328,304.19,328Z"/><path class="cls-1" d="M304.73,244.13c15.74,0,22.56,6.71,22.56,23.21V280.1h-22V267.34c0-4.18-.33-4.29-1.1-4.29-1.21,0-1.21.33-1.21,4.29V302c0,4,.21,4.29,1.21,4.29s1.1-.33,1.1-4.29V288h22v14.74c0,16.5-8.69,23.21-23.1,23.21-14.63,0-23-5.94-23-23.21V267.34c0-16.17,8.48-23.21,23.54-23.21m0-4c-18,0-27.54,9.41-27.54,27.21v35.42c0,18.31,8.83,27.21,27,27.21,17.72,0,27.1-9.41,27.1-27.21V288a4,4,0,0,0-3.44-4,4,4,0,0,0,3.44-4V267.34c0-18.56-8.44-27.21-26.56-27.21Z"/><path d="M338.94,326.76a2,2,0,0,1-2-2V268.13h-6.25a2,2,0,0,1-2-2V245.56a2,2,0,0,1,2-2h38.72a2,2,0,0,1,2,2v20.57a2,2,0,0,1-2,2h-6.25v56.63a2,2,0,0,1-2,2Z"/><path class="cls-1" d="M369.41,245.56v20.57h-8.25v58.63H338.94V266.13h-8.25V245.56h38.72m0-4H330.69a4,4,0,0,0-4,4v20.57a4,4,0,0,0,4,4h4.25v54.63a4,4,0,0,0,4,4h22.22a4,4,0,0,0,4-4V270.13h4.25a4,4,0,0,0,4-4V245.56a4,4,0,0,0-4-4Z"/><path d="M373.37,326.76a2,2,0,0,1-2-2v-79.2a2,2,0,0,1,2-2h37.07a2,2,0,0,1,2,2v20.68a2,2,0,0,1-2,2H396.71v4h13.73a2,2,0,0,1,2,2v20.79a2,2,0,0,1-2,2H396.71v4.47h13.73a2,2,0,0,1,2,2v21.23a2,2,0,0,1-2,2Z"/><path class="cls-1" d="M410.44,245.56v20.68H394.71v8h15.73v20.79H394.71v8.47h15.73v21.23H373.37v-79.2h37.07m0-4H373.37a4,4,0,0,0-4,4v79.2a4,4,0,0,0,4,4h37.07a4,4,0,0,0,4-4V303.53a4,4,0,0,0-4-4H398.71v-.47h11.73a4,4,0,0,0,4-4V274.27a4,4,0,0,0-4-4H398.71v0h11.73a4,4,0,0,0,4-4V245.56a4,4,0,0,0-4-4Z"/><path d="M414.51,326.76a2,2,0,0,1-2-2v-79.2a2,2,0,0,1,2-2h22.88a36.25,36.25,0,0,1,12.92,2.22c8.33,3.51,12.51,10.94,12.51,22.11v34.43c0,6.12-1.11,10.8-3.4,14.3-4.26,6.72-11.79,10.14-22.36,10.14Z"/><path class="cls-1" d="M437.39,245.56a34.15,34.15,0,0,1,12.21,2.09c7,3,11.22,9.13,11.22,20.24v34.43c0,5.61-1,10-3.08,13.2-4.18,6.6-11.55,9.24-20.68,9.24H414.51v-79.2h22.88M436,306c2.09,0,2.42-.33,2.42-3.85V267c0-2.75-.44-3.19-2.31-3.19H436V306m1.43-64.39H414.51a4,4,0,0,0-4,4v79.2a4,4,0,0,0,4,4h22.55c11.29,0,19.38-3.73,24.05-11.07,2.5-3.83,3.71-8.86,3.71-15.37V267.89c0-12-4.59-20.1-13.66-23.93l-.15-.05a38.09,38.09,0,0,0-13.62-2.35Z"/><path d="M514.5,326.76a2,2,0,0,1-2-1.82l-.39-4.23h-3.27l-.39,4.23a2,2,0,0,1-2,1.82h-21a2,2,0,0,1-2-2.27l11-79.2a2,2,0,0,1,2-1.73h27.39a2,2,0,0,1,2,1.71l11.66,79.2a2,2,0,0,1-.46,1.6,2,2,0,0,1-1.52.69Z"/><path class="cls-1" d="M523.85,245.56l11.66,79.2h-21l-.55-6.05H507l-.55,6.05h-21l11-79.2h27.39m-15.07,55.77h3.41l-1.1-10.67-.77-16.17-.55,16.17-1,10.67m15.07-59.77H496.46a4,4,0,0,0-4,3.45l-11,79.2a4,4,0,0,0,4,4.55h21a4,4,0,0,0,4-3.64l0-.34,0,.34a4,4,0,0,0,4,3.64h21a4,4,0,0,0,4-4.58L527.81,245a4,4,0,0,0-4-3.42Z"/><path d="M563.78,326.76a2,2,0,0,1-2-1.64l-1.09-6v5.62a2,2,0,0,1-2,2h-21a2,2,0,0,1-2-2v-79.2a2,2,0,0,1,2-2h25.41a2,2,0,0,1,2,1.65l.65,3.64v-3.29a2,2,0,0,1,2-2H588.2a2,2,0,0,1,2,2v79.2a2,2,0,0,1-2,2Z"/><path class="cls-1" d="M588.2,245.56v79.2H563.78l-9.57-52.36,4.51,34.54v17.82h-21v-79.2h25.41l9.57,53.57-5-38.06V245.56H588.2m0-4H567.74a4,4,0,0,1-4.62,0H537.71a4,4,0,0,0-4,4v79.2a4,4,0,0,0,4,4h21a4,4,0,0,1,5.06,0H588.2a4,4,0,0,0,4-4v-79.2a4,4,0,0,0-4-4Z"/><path d="M592.6,326.76a2,2,0,0,1-2-2v-79.2a2,2,0,0,1,2-2h22.88a36.16,36.16,0,0,1,12.91,2.22c8.33,3.51,12.52,10.94,12.52,22.11v34.43c0,6.12-1.11,10.8-3.41,14.3-4.25,6.72-11.78,10.14-22.35,10.14Z"/><path class="cls-1" d="M615.48,245.56a34.15,34.15,0,0,1,12.21,2.09c7,3,11.22,9.13,11.22,20.24v34.43c0,5.61-1,10-3.08,13.2-4.18,6.6-11.55,9.24-20.68,9.24H592.6v-79.2h22.88M614.05,306c2.09,0,2.42-.33,2.42-3.85V267c0-2.75-.44-3.19-2.31-3.19h-.11V306m1.43-64.39H592.6a4,4,0,0,0-4,4v79.2a4,4,0,0,0,4,4h22.55c11.29,0,19.38-3.73,24-11.07,2.5-3.83,3.72-8.86,3.72-15.37V267.89c0-12-4.6-20.1-13.66-23.93l-.15-.05a38.09,38.09,0,0,0-13.62-2.35Z"/><rect x="663.86" y="243.56" width="26.33" height="83.2" rx="2"/><path class="cls-1" d="M688.19,245.56v79.2H665.86v-79.2h22.33m0-4H665.86a4,4,0,0,0-4,4v79.2a4,4,0,0,0,4,4h22.33a4,4,0,0,0,4-4v-79.2a4,4,0,0,0-4-4Z"/><path d="M715.36,326.76a2,2,0,0,1-2-2v-79.2a2,2,0,0,1,2-2H737.8a2,2,0,0,1,2,2v55.09h9.66a2,2,0,0,1,2,2v22.11a2,2,0,0,1-2,2Z"/><path class="cls-1" d="M737.8,245.56v57.09h11.66v22.11h-34.1v-79.2H737.8m0-4H715.36a4,4,0,0,0-4,4v79.2a4,4,0,0,0,4,4h34.1a4,4,0,0,0,4-4V302.65a4,4,0,0,0-4-4H741.8V245.56a4,4,0,0,0-4-4Z"/><path d="M776.08,328c-17,0-25.21-8.25-25.21-25.21V267.34c0-16.49,8.71-25.21,25.21-25.21a33.41,33.41,0,0,1,12.85,2.46c8.22,3.72,12.36,11.37,12.36,22.75v35.42c0,6.22-1.07,11-3.27,14.58C794.12,324.37,786.72,328,776.08,328Z"/><path class="cls-1" d="M776.08,244.13a31.63,31.63,0,0,1,12.1,2.31c7,3.19,11.11,9.79,11.11,20.9v35.42c0,5.61-.88,10.12-3,13.53-3.85,6.93-11,9.68-20.24,9.68-14.63,0-23.21-6.27-23.21-23.21V267.34c0-16.61,8.91-23.21,23.21-23.21m0,62.15c1.21,0,1.21-.33,1.21-4.29V267.34c0-4,0-4.29-1.21-4.29s-1.21.33-1.21,4.29V302c0,4,0,4.29,1.21,4.29m0-66.15c-8.46,0-15.09,2.17-19.69,6.44-5,4.64-7.52,11.62-7.52,20.77v35.42c0,18.06,9.15,27.21,27.21,27.21,11.38,0,19.36-3.92,23.69-11.66,2.37-3.9,3.52-9,3.52-15.55V267.34c0-12.24-4.53-20.5-13.46-24.54l-.15-.07a35.48,35.48,0,0,0-13.6-2.6Z"/><path d="M826.67,328c-17,0-25.21-8.25-25.21-25.21V267.34c0-16.49,8.72-25.21,25.21-25.21a33.42,33.42,0,0,1,12.86,2.46c8.22,3.72,12.35,11.37,12.35,22.75v35.42c0,6.22-1.06,11-3.26,14.58C844.72,324.37,837.32,328,826.67,328Z"/><path class="cls-1" d="M826.67,244.13a31.72,31.72,0,0,1,12.11,2.31c7,3.19,11.1,9.79,11.1,20.9v35.42c0,5.61-.88,10.12-3,13.53-3.85,6.93-11,9.68-20.25,9.68-14.63,0-23.21-6.27-23.21-23.21V267.34c0-16.61,8.92-23.21,23.21-23.21m0,62.15c1.21,0,1.21-.33,1.21-4.29V267.34c0-4,0-4.29-1.21-4.29s-1.21.33-1.21,4.29V302c0,4,0,4.29,1.21,4.29m0-66.15c-8.45,0-15.08,2.17-19.68,6.44-5,4.64-7.53,11.62-7.53,20.77v35.42c0,18.06,9.16,27.21,27.21,27.21,11.39,0,19.36-3.92,23.7-11.66,2.37-3.9,3.51-9,3.51-15.55V267.34c0-12.24-4.52-20.5-13.45-24.54l-.15-.07a35.57,35.57,0,0,0-13.61-2.6Z"/><path d="M881.56,326.76a2,2,0,0,1-1.95-1.57l-2-9v8.6a2,2,0,0,1-2,2H854.17a2,2,0,0,1-2-2v-79.2a2,2,0,0,1,2-2h21.45a2,2,0,0,1,2,2v7.24L880,245a2,2,0,0,1,1.91-1.42H905a2,2,0,0,1,1.63.83,2,2,0,0,1,.27,1.81l-11.14,33.2,11.62,44.86a2,2,0,0,1-1.94,2.5Z"/><path class="cls-1" d="M905,245.56l-11.33,33.77,11.77,45.43H881.56l-4.84-22-.88-9-.22,1.87v29.15H854.17v-79.2h21.45v14.63l-2,16.28,3.41-14.85,4.84-16.06H905m0-4h-23.1a4,4,0,0,1-6.27,0H854.17a4,4,0,0,0-4,4v79.2a4,4,0,0,0,4,4h21.45a4,4,0,0,1,5.94,0h23.87a4,4,0,0,0,3.88-5l-11.48-44.28,11-32.65a4,4,0,0,0-3.8-5.27Z"/><path d="M930,326.76a2,2,0,0,1-2-2v-79.2a2,2,0,0,1,2-2h34.76a2,2,0,0,1,2,2V266.9a2,2,0,0,1-2,2H953.19v3.7h11.53a2,2,0,0,1,2,2v21.34a2,2,0,0,1-2,2H953.19v26.82a2,2,0,0,1-2,2Z"/><path class="cls-1" d="M964.72,245.56V266.9H951.19v7.7h13.53v21.34H951.19v28.82H930v-79.2h34.76m0-4H930a4,4,0,0,0-4,4v79.2a4,4,0,0,0,4,4h21.23a4,4,0,0,0,4-4V299.94h9.53a4,4,0,0,0,4-4V274.6a4,4,0,0,0-2.91-3.85,4,4,0,0,0,2.91-3.85V245.56a4,4,0,0,0-4-4Z"/><path d="M991.89,328c-17,0-25.21-8.25-25.21-25.21V267.34c0-16.49,8.72-25.21,25.21-25.21a33.37,33.37,0,0,1,12.85,2.46c8.23,3.72,12.36,11.37,12.36,22.75v35.42c0,6.22-1.07,11-3.27,14.58C1009.93,324.37,1002.53,328,991.89,328Z"/><path class="cls-1" d="M991.89,244.13a31.63,31.63,0,0,1,12.1,2.31c7,3.19,11.11,9.79,11.11,20.9v35.42c0,5.61-.88,10.12-3,13.53-3.85,6.93-11,9.68-20.24,9.68-14.63,0-23.21-6.27-23.21-23.21V267.34c0-16.61,8.91-23.21,23.21-23.21m0,62.15c1.21,0,1.21-.33,1.21-4.29V267.34c0-4,0-4.29-1.21-4.29s-1.21.33-1.21,4.29V302c0,4,0,4.29,1.21,4.29m0-66.15c-8.46,0-15.08,2.17-19.69,6.44-5,4.64-7.52,11.62-7.52,20.77v35.42c0,18.06,9.15,27.21,27.21,27.21,11.39,0,19.36-3.92,23.7-11.66,2.36-3.9,3.51-9,3.51-15.55V267.34c0-12.24-4.53-20.5-13.46-24.54l-.14-.07a35.57,35.57,0,0,0-13.61-2.6Z"/><path d="M1044.36,326.76a2,2,0,0,1-.83-.18,3.56,3.56,0,0,1-1.16-.85,2,2,0,0,1-1.75,1h-21.34a2,2,0,0,1-2-2v-79.2a2,2,0,0,1,2-2h23.43a41.74,41.74,0,0,1,12.6,1.64c7.17,2.17,10.52,8.34,10.52,19.39v10.78c0,6-.79,10.45-4.18,13.22,3.61,2.71,4,7.08,4,12.3v17.82c0,3.62.26,4,.89,4.58a2,2,0,0,1-1.35,3.47Z"/><path class="cls-1" d="M1042.71,245.56a40.21,40.21,0,0,1,12,1.54c6.16,1.87,9.13,7,9.13,17.49v10.78c0,7.92-1.43,11.55-6.49,13.31,5.28,1.65,6.27,4.95,6.27,12.21v17.82c0,3.63.22,4.84,1.54,6.05h-20.79c-1.21-.55-1.43-2.75-1.43-5.94v-17.6c0-2.75-.66-3.3-2.31-3.41v26.95h-21.34v-79.2h23.43m-2.09,34.65c2.09-.11,2.42-.88,2.42-2.75V266c0-2.09-.44-2.64-2.2-2.64h-.22v16.83m2.09-38.65h-23.43a4,4,0,0,0-4,4v79.2a4,4,0,0,0,4,4h21.34a4.07,4.07,0,0,0,1.87-.46l.21.1a4,4,0,0,0,1.66.36h20.79a4,4,0,0,0,2.7-6.95l-.07-.07a14,14,0,0,1-.17-3V300.89c0-4.68-.31-9.13-3.08-12.34,3-3.61,3.3-8.56,3.3-13.18V264.59c0-7.58-1.24-18-11.94-21.31a44,44,0,0,0-13.18-1.72Z"/><path d="M1107.06,326.76a2,2,0,0,1-2-1.84L1104,311.67l-1.19,13.27a2,2,0,0,1-2,1.82h-28.27a2,2,0,0,1-2-1.83l-6.71-79.2a2.05,2.05,0,0,1,.52-1.52,2,2,0,0,1,1.48-.65h22.66a2,2,0,0,1,2,1.92l.22,5.77.52-5.87a2,2,0,0,1,2-1.82h21.67a2,2,0,0,1,2,1.83l.71,8.33.47-8.27a2,2,0,0,1,2-1.89h22.11a2,2,0,0,1,2,2.18l-7.15,79.2a2,2,0,0,1-2,1.82Z"/><path class="cls-1" d="M1142.15,245.56l-7.15,79.2h-27.94l-2.42-29.37-.55-25.52-.66,25.52-2.64,29.37h-28.27l-6.71-79.2h22.66l1.1,28.71-.11,33.11,1.21-33.22,2.53-28.6h21.67l2.42,28.6,1.43,33.22-.33-33.11,1.65-28.71h22.11m0-4H1120a4,4,0,0,1-5.17,0H1093.2a4.07,4.07,0,0,0-2.37.77,4,4,0,0,0-2.36-.77h-22.66a4,4,0,0,0-4,4.34l6.71,79.2a4,4,0,0,0,4,3.66h28.27a4,4,0,0,1,6.27,0H1135a4,4,0,0,0,4-3.64l7.15-79.2a4,4,0,0,0-4-4.36Z"/><path d="M1167.78,326.76a2,2,0,0,1-2-1.82l-.39-4.23h-3.28l-.38,4.23a2,2,0,0,1-2,1.82h-21a2,2,0,0,1-2-2.27l11-79.2a2,2,0,0,1,2-1.73h27.39a2,2,0,0,1,2,1.71l11.66,79.2a2,2,0,0,1-.47,1.6,2,2,0,0,1-1.51.69Z"/><path class="cls-1" d="M1177.13,245.56l11.66,79.2h-21l-.55-6.05h-6.93l-.55,6.05h-21l11-79.2h27.39m-15.07,55.77h3.41l-1.1-10.67-.77-16.17-.55,16.17-1,10.67m15.07-59.77h-27.39a4,4,0,0,0-4,3.45l-11,79.2a4,4,0,0,0,4,4.55h21a4,4,0,0,0,4-3.64l0-.34,0,.34a4,4,0,0,0,4,3.64h21a4,4,0,0,0,4-4.58L1181.09,245a4,4,0,0,0-4-3.42Z"/><path d="M1216.07,326.76a2,2,0,0,1-.83-.18,3.46,3.46,0,0,1-1.16-.85,2,2,0,0,1-1.75,1H1191a2,2,0,0,1-2-2v-79.2a2,2,0,0,1,2-2h23.43a41.74,41.74,0,0,1,12.6,1.64c7.17,2.17,10.52,8.34,10.52,19.39v10.78c0,6-.79,10.45-4.18,13.22,3.61,2.71,4,7.08,4,12.3v17.82c0,3.62.26,4,.89,4.58a2,2,0,0,1-1.35,3.47Z"/><path class="cls-1" d="M1214.42,245.56a40.21,40.21,0,0,1,12,1.54c6.16,1.87,9.13,7,9.13,17.49v10.78c0,7.92-1.43,11.55-6.49,13.31,5.28,1.65,6.27,4.95,6.27,12.21v17.82c0,3.63.22,4.84,1.54,6.05h-20.79c-1.21-.55-1.43-2.75-1.43-5.94v-17.6c0-2.75-.66-3.3-2.31-3.41v26.95H1191v-79.2h23.43m-2.09,34.65c2.09-.11,2.42-.88,2.42-2.75V266c0-2.09-.44-2.64-2.2-2.64h-.22v16.83m2.09-38.65H1191a4,4,0,0,0-4,4v79.2a4,4,0,0,0,4,4h21.34a4.07,4.07,0,0,0,1.87-.46l.21.1a4,4,0,0,0,1.66.36h20.79a4,4,0,0,0,2.7-6.95l-.07-.07a14,14,0,0,1-.17-3V300.89c0-4.68-.32-9.13-3.08-12.34,3-3.61,3.3-8.56,3.3-13.18V264.59c0-7.58-1.24-18-11.94-21.31a44,44,0,0,0-13.18-1.72Z"/><path d="M1239.61,326.76a2,2,0,0,1-2-2v-79.2a2,2,0,0,1,2-2h22.88a36.2,36.2,0,0,1,12.91,2.22c8.33,3.51,12.52,10.94,12.52,22.11v34.43c0,6.12-1.12,10.8-3.41,14.3-4.26,6.72-11.78,10.14-22.35,10.14Z"/><path class="cls-1" d="M1262.49,245.56a34.15,34.15,0,0,1,12.21,2.09c7,3,11.22,9.13,11.22,20.24v34.43c0,5.61-1,10-3.08,13.2-4.18,6.6-11.55,9.24-20.68,9.24h-22.55v-79.2h22.88M1261.06,306c2.09,0,2.42-.33,2.42-3.85V267c0-2.75-.44-3.19-2.31-3.19h-.11V306m1.43-64.39h-22.88a4,4,0,0,0-4,4v79.2a4,4,0,0,0,4,4h22.55c11.28,0,19.37-3.73,24-11.07,2.5-3.84,3.72-8.86,3.72-15.37V267.89c0-12-4.6-20.1-13.67-23.93l-.15-.05a38,38,0,0,0-13.61-2.35Z"/><path d="M1320.57,326.76a2,2,0,0,1-2-2V268.13h-6.25a2,2,0,0,1-2-2V245.56a2,2,0,0,1,2-2H1351a2,2,0,0,1,2,2v20.57a2,2,0,0,1-2,2h-6.25v56.63a2,2,0,0,1-2,2Z"/><path class="cls-1" d="M1351,245.56v20.57h-8.25v58.63h-22.22V266.13h-8.25V245.56H1351m0-4h-38.72a4,4,0,0,0-4,4v20.57a4,4,0,0,0,4,4h4.25v54.63a4,4,0,0,0,4,4h22.22a4,4,0,0,0,4-4V270.13H1351a4,4,0,0,0,4-4V245.56a4,4,0,0,0-4-4Z"/><path d="M1377.21,328c-17,0-25.21-8.25-25.21-25.21V267.34c0-16.49,8.72-25.21,25.21-25.21a33.42,33.42,0,0,1,12.86,2.46c8.22,3.72,12.35,11.37,12.35,22.75v35.42c0,6.22-1.06,11-3.26,14.58C1395.26,324.37,1387.86,328,1377.21,328Z"/><path class="cls-1" d="M1377.21,244.13a31.72,31.72,0,0,1,12.11,2.31c7,3.19,11.1,9.79,11.1,20.9v35.42c0,5.61-.88,10.12-3,13.53-3.85,6.93-11,9.68-20.25,9.68-14.63,0-23.21-6.27-23.21-23.21V267.34c0-16.61,8.92-23.21,23.21-23.21m0,62.15c1.21,0,1.21-.33,1.21-4.29V267.34c0-4,0-4.29-1.21-4.29s-1.21.33-1.21,4.29V302c0,4,0,4.29,1.21,4.29m0-66.15c-8.45,0-15.08,2.17-19.68,6.44-5,4.64-7.53,11.62-7.53,20.77v35.42c0,18.06,9.16,27.21,27.21,27.21,11.39,0,19.36-3.92,23.7-11.66,2.37-3.9,3.51-9,3.51-15.55V267.34c0-12.24-4.52-20.5-13.45-24.54l-.15-.07a35.57,35.57,0,0,0-13.61-2.6Z"/><path d="M52.84,448c-17.05,0-25-8-25-25.21V387.35c0-16.73,8.59-25.21,25.54-25.21s24.55,7.78,24.55,25.21v12.76a2,2,0,0,1-2,2h-22l-.31,0v4l.31,0h22a2,2,0,0,1,2,2v14.74C77.94,439.26,69.26,448,52.84,448Z"/><path class="cls-1" d="M53.39,364.14c15.73,0,22.55,6.71,22.55,23.21v12.76h-22V387.35c0-4.18-.33-4.29-1.1-4.29-1.21,0-1.21.33-1.21,4.29V422c0,4,.22,4.29,1.21,4.29s1.1-.33,1.1-4.29V408h22v14.74c0,16.5-8.69,23.21-23.1,23.21-14.63,0-23-5.94-23-23.21V387.35c0-16.17,8.47-23.21,23.54-23.21m0-4c-18,0-27.54,9.41-27.54,27.21v35.42c0,18.31,8.83,27.21,27,27.21,17.73,0,27.1-9.41,27.1-27.21V408a4,4,0,0,0-3.43-4,4,4,0,0,0,3.43-4V387.35c0-18.56-8.44-27.21-26.55-27.21Z"/><path d="M80,446.77a2,2,0,0,1-2-2v-79.2a2,2,0,0,1,2-2h37.07a2,2,0,0,1,2,2v20.68a2,2,0,0,1-2,2H103.35v4h13.73a2,2,0,0,1,2,2v20.79a2,2,0,0,1-2,2H103.35v4.47h13.73a2,2,0,0,1,2,2v21.23a2,2,0,0,1-2,2Z"/><path class="cls-1" d="M117.08,365.57v20.68H101.35v8h15.73v20.79H101.35v8.47h15.73v21.23H80v-79.2h37.07m0-4H80a4,4,0,0,0-4,4v79.2a4,4,0,0,0,4,4h37.07a4,4,0,0,0,4-4V423.54a4,4,0,0,0-4-4H105.35v-.47h11.73a4,4,0,0,0,4-4V394.28a4,4,0,0,0-4-4H105.35v0h11.73a4,4,0,0,0,4-4V365.57a4,4,0,0,0-4-4Z"/><path d="M121.15,446.77a2,2,0,0,1-2-2v-79.2a2,2,0,0,1,2-2h22.44a2,2,0,0,1,2,2v55.09h9.66a2,2,0,0,1,2,2v22.11a2,2,0,0,1-2,2Z"/><path class="cls-1" d="M143.59,365.57v57.09h11.66v22.11h-34.1v-79.2h22.44m0-4H121.15a4,4,0,0,0-4,4v79.2a4,4,0,0,0,4,4h34.1a4,4,0,0,0,4-4V422.66a4,4,0,0,0-4-4h-7.66V365.57a4,4,0,0,0-4-4Z"/><path d="M159.32,446.77a2,2,0,0,1-2-2v-79.2a2,2,0,0,1,2-2h37.07a2,2,0,0,1,2,2v20.68a2,2,0,0,1-2,2H182.66v4h13.73a2,2,0,0,1,2,2v20.79a2,2,0,0,1-2,2H182.66v4.47h13.73a2,2,0,0,1,2,2v21.23a2,2,0,0,1-2,2Z"/><path class="cls-1" d="M196.39,365.57v20.68H180.66v8h15.73v20.79H180.66v8.47h15.73v21.23H159.32v-79.2h37.07m0-4H159.32a4,4,0,0,0-4,4v79.2a4,4,0,0,0,4,4h37.07a4,4,0,0,0,4-4V423.54a4,4,0,0,0-4-4H184.66v-.47h11.73a4,4,0,0,0,4-4V394.28a4,4,0,0,0-4-4H184.66v0h11.73a4,4,0,0,0,4-4V365.57a4,4,0,0,0-4-4Z"/><path d="M200.46,446.77a2,2,0,0,1-2-2v-79.2a2,2,0,0,1,2-2h22.22a44,44,0,0,1,13.15,1.64c7.2,2.36,10.41,7.72,10.41,17.41v8.91c0,5.41-.84,9.51-4.41,12.11,3.92,2.67,4.85,7.33,4.85,13.3v9.35a37,37,0,0,1-1.42,11.28c-2.06,6.45-7.4,9.2-17.85,9.2Z"/><path class="cls-1" d="M222.68,365.57a42.14,42.14,0,0,1,12.54,1.54c6.38,2.09,9,6.71,9,15.51v8.91c0,6.82-1.32,10.45-7.26,12.21,5.94,1.43,7.7,5.28,7.7,13.2v9.35A35.61,35.61,0,0,1,243.36,437c-1.76,5.5-6.27,7.81-16,7.81H200.46v-79.2h22.22M221,396h.77c1,0,1.54-.33,1.54-2.42V383.39c0-1.87-.33-2.2-2-2.2H221V396m0,31.79h.44c1.76,0,2.09-.55,2.09-2.86v-9.9c0-2.31-.44-2.42-2.2-2.42H221v15.18m1.65-66.26H200.46a4,4,0,0,0-4,4v79.2a4,4,0,0,0,4,4h26.95c14.51,0,18.18-5.66,19.76-10.59a39.46,39.46,0,0,0,1.51-11.89v-9.35c0-4.83-.58-9.86-3.85-13.34,2.88-3.23,3.41-7.62,3.41-12.07v-8.91c0-13.85-6.72-17.66-11.78-19.31a45.84,45.84,0,0,0-13.78-1.74Z"/><path d="M273.61,446.77a2,2,0,0,1-.83-.18,3.46,3.46,0,0,1-1.16-.85,2,2,0,0,1-1.75,1H248.53a2,2,0,0,1-2-2v-79.2a2,2,0,0,1,2-2H272a41.74,41.74,0,0,1,12.6,1.64c7.17,2.17,10.52,8.34,10.52,19.39v10.78c0,6-.79,10.45-4.18,13.22,3.61,2.71,4,7.08,4,12.3v17.82c0,3.61.25,4,.89,4.58a2,2,0,0,1-1.35,3.47Z"/><path class="cls-1" d="M272,365.57a40.21,40.21,0,0,1,12,1.54c6.16,1.87,9.13,7,9.13,17.49v10.78c0,7.92-1.43,11.55-6.49,13.31,5.28,1.65,6.27,4.95,6.27,12.21v17.82c0,3.63.22,4.84,1.54,6H273.61c-1.21-.55-1.43-2.75-1.43-5.94v-17.6c0-2.75-.66-3.3-2.31-3.41v26.95H248.53v-79.2H272m-2.09,34.65c2.09-.11,2.42-.88,2.42-2.75V386c0-2.09-.44-2.64-2.2-2.64h-.22v16.83M272,361.57H248.53a4,4,0,0,0-4,4v79.2a4,4,0,0,0,4,4h21.34a4.07,4.07,0,0,0,1.87-.46l.21.1a4,4,0,0,0,1.66.36H294.4a4,4,0,0,0,2.7-6.95l-.07-.07a14,14,0,0,1-.17-3V420.9c0-4.68-.32-9.13-3.08-12.35,3-3.6,3.3-8.55,3.3-13.17V384.6c0-7.58-1.24-18-11.94-21.31A44,44,0,0,0,272,361.57Z"/><path d="M324.1,446.77a2,2,0,0,1-2-1.82l-.38-4.23h-3.28l-.38,4.23a2,2,0,0,1-2,1.82h-21a2,2,0,0,1-2-2.27l11-79.21a2,2,0,0,1,2-1.72h27.39a2,2,0,0,1,2,1.71l11.66,79.2a2,2,0,0,1-.47,1.6,2,2,0,0,1-1.51.69Z"/><path class="cls-1" d="M333.45,365.57l11.66,79.2h-21l-.55-6h-6.93l-.55,6h-21l11-79.2h27.39m-15.07,55.77h3.41l-1.1-10.67-.77-16.17-.55,16.17-1,10.67m15.07-59.77H306.06a4,4,0,0,0-4,3.45l-11,79.2a4,4,0,0,0,4,4.55h21a4,4,0,0,0,4-3.64l0-.34,0,.34a4,4,0,0,0,4,3.64h21a4,4,0,0,0,3.95-4.58L337.4,365a4,4,0,0,0-3.95-3.42Z"/><path d="M348.85,446.77a2,2,0,0,1-2-2V388.14H340.6a2,2,0,0,1-2-2V365.57a2,2,0,0,1,2-2h38.72a2,2,0,0,1,2,2v20.57a2,2,0,0,1-2,2h-6.25v56.63a2,2,0,0,1-2,2Z"/><path class="cls-1" d="M379.32,365.57v20.57h-8.25v58.63H348.85V386.14H340.6V365.57h38.72m0-4H340.6a4,4,0,0,0-4,4v20.57a4,4,0,0,0,4,4h4.25v54.63a4,4,0,0,0,4,4h22.22a4,4,0,0,0,4-4V390.14h4.25a4,4,0,0,0,4-4V365.57a4,4,0,0,0-4-4Z"/><rect x="381.28" y="363.57" width="26.33" height="83.2" rx="2"/><path class="cls-1" d="M405.61,365.57v79.2H383.28v-79.2h22.33m0-4H383.28a4,4,0,0,0-4,4v79.2a4,4,0,0,0,4,4h22.33a4,4,0,0,0,4-4v-79.2a4,4,0,0,0-4-4Z"/><path d="M436.19,446.77a2,2,0,0,1-2-1.64l-1.09-6v5.62a2,2,0,0,1-2,2h-21a2,2,0,0,1-2-2v-79.2a2,2,0,0,1,2-2h25.41a2,2,0,0,1,2,1.65l.66,3.64v-3.29a2,2,0,0,1,2-2h20.46a2,2,0,0,1,2,2v79.2a2,2,0,0,1-2,2Z"/><path class="cls-1" d="M460.61,365.57v79.2H436.19l-9.57-52.36L431.13,427v17.82h-21v-79.2h25.41l9.57,53.57-5-38.06V365.57h20.46m0-4H440.15a4,4,0,0,0-2.31.73,4,4,0,0,0-2.31-.73H410.12a4,4,0,0,0-4,4v79.2a4,4,0,0,0,4,4h21a4,4,0,0,0,2.53-.9,4,4,0,0,0,2.53.9h24.42a4,4,0,0,0,4-4v-79.2a4,4,0,0,0-4-4Z"/><path d="M480,448c-14.25,0-17.18-10-17.18-24.88v-36c0-16.28,8.84-24.88,25.54-24.88,17.44,0,25.21,7.57,25.21,24.55v6.82a2,2,0,0,0,0,4v47.19a2,2,0,0,1-2,2H493.82a2,2,0,0,1-2-1.84l-.16-1.89C489.16,446.38,485.3,448,480,448Zm9.24-22.92h.12a10.46,10.46,0,0,0,.3-3.28V420.7h-.84v1.08a11.65,11.65,0,0,0,.27,3.28Zm-.4-29.48h0Z"/><path class="cls-1" d="M488.32,364.25c15.95,0,23.21,6.38,23.21,22.55v6.82H489.2v-7.15c0-3.41-.22-3.41-1.21-3.41s-1.21.11-1.21,3.63v35.09c0,4.29.55,5.28,2.42,5.28s2.42-1,2.42-5.28V418.7h-3.19V397.58h23.1v47.19H493.82l-.88-10.67c-1.21,7.81-4.73,11.88-13,11.88-11.22,0-15.18-6.38-15.18-22.88v-36c0-16.5,9.13-22.88,23.54-22.88m0-4c-18,0-27.54,9.29-27.54,26.88v36c0,9.44,1.25,15.55,4,19.82,3.11,4.75,8.06,7.06,15.14,7.06,4.35,0,7.85-1,10.55-3a4,4,0,0,0,3.31,1.76h17.71a4,4,0,0,0,4-4V397.58a4,4,0,0,1,0-4V386.8c0-18.11-8.64-26.55-27.21-26.55Z"/><path d="M561.58,448c-17,0-25.21-8.25-25.21-25.21V387.35c0-16.49,8.72-25.21,25.21-25.21a33.46,33.46,0,0,1,12.86,2.46c8.22,3.72,12.35,11.37,12.35,22.75v35.42c0,6.22-1.07,11-3.26,14.58C579.62,444.38,572.23,448,561.58,448Z"/><path class="cls-1" d="M561.58,364.14a31.63,31.63,0,0,1,12.1,2.31c7,3.19,11.11,9.79,11.11,20.9v35.42c0,5.61-.88,10.12-3,13.53-3.85,6.93-11,9.68-20.24,9.68-14.63,0-23.21-6.27-23.21-23.21V387.35c0-16.61,8.91-23.21,23.21-23.21m0,62.15c1.21,0,1.21-.33,1.21-4.29V387.35c0-4,0-4.29-1.21-4.29s-1.21.33-1.21,4.29V422c0,4,0,4.29,1.21,4.29m0-66.15c-8.45,0-15.08,2.17-19.69,6.44-5,4.64-7.52,11.62-7.52,20.77v35.42c0,18.06,9.16,27.21,27.21,27.21,11.39,0,19.36-3.92,23.7-11.66,2.36-3.9,3.51-9,3.51-15.55V387.35c0-12.24-4.53-20.5-13.46-24.54l-.14-.07a35.57,35.57,0,0,0-13.61-2.6Z"/><path d="M611.74,448c-17.21,0-24.88-7.88-24.88-25.54V365.57a2,2,0,0,1,2-2h21.78a2,2,0,0,1,1.1.33,2,2,0,0,1,1.1-.33h21.89a2,2,0,0,1,2,2v56.87C636.73,439.63,628.56,448,611.74,448Z"/><path class="cls-1" d="M634.73,365.57v56.87c0,16.06-7,23.54-23,23.54-16.94,0-22.88-7.81-22.88-23.54V365.57h21.78v55.55c0,3.85.11,4.07,1.1,4.07s1.1-.11,1.1-4.07V365.57h21.89m0-4H612.84a4.11,4.11,0,0,1-2.2,0H588.86a4,4,0,0,0-4,4v56.87c0,18.79,8.54,27.54,26.88,27.54,9.16,0,15.81-2.28,20.35-7s6.64-11.34,6.64-20.57V365.57a4,4,0,0,0-4-4Z"/><path d="M664,446.77a2,2,0,0,1-.83-.18,3.56,3.56,0,0,1-1.16-.85,2,2,0,0,1-1.75,1H638.91a2,2,0,0,1-2-2v-79.2a2,2,0,0,1,2-2h23.43a41.65,41.65,0,0,1,12.6,1.64c7.17,2.17,10.52,8.34,10.52,19.39v10.78c0,6-.79,10.45-4.18,13.22,3.61,2.71,4,7.08,4,12.3v17.82c0,3.61.26,4,.89,4.58a2,2,0,0,1-1.35,3.47Z"/><path class="cls-1" d="M662.34,365.57a40.21,40.21,0,0,1,12,1.54c6.16,1.87,9.13,7,9.13,17.49v10.78c0,7.92-1.43,11.55-6.49,13.31,5.28,1.65,6.27,4.95,6.27,12.21v17.82c0,3.63.22,4.84,1.54,6H664c-1.21-.55-1.43-2.75-1.43-5.94v-17.6c0-2.75-.66-3.3-2.31-3.41v26.95H638.91v-79.2h23.43m-2.09,34.65c2.09-.11,2.42-.88,2.42-2.75V386c0-2.09-.44-2.64-2.2-2.64h-.22v16.83m2.09-38.65H638.91a4,4,0,0,0-4,4v79.2a4,4,0,0,0,4,4h21.34a4,4,0,0,0,1.87-.46l.22.1a3.92,3.92,0,0,0,1.65.36h20.79a4,4,0,0,0,2.7-6.95l-.07-.07a14,14,0,0,1-.17-3V420.9c0-4.68-.31-9.13-3.08-12.35,3-3.6,3.3-8.55,3.3-13.17V384.6c0-7.58-1.24-18-11.93-21.31a44,44,0,0,0-13.19-1.72Z"/><path d="M733,448c-17.05,0-25-8-25-25.21V387.35c0-16.73,8.59-25.21,25.54-25.21s24.55,7.78,24.55,25.21v12.76a2,2,0,0,1-2,2h-22l-.31,0v4l.31,0h22a2,2,0,0,1,2,2v14.74C758.06,439.26,749.38,448,733,448Z"/><path class="cls-1" d="M733.51,364.14c15.73,0,22.55,6.71,22.55,23.21v12.76h-22V387.35c0-4.18-.33-4.29-1.1-4.29-1.21,0-1.21.33-1.21,4.29V422c0,4,.22,4.29,1.21,4.29s1.1-.33,1.1-4.29V408h22v14.74c0,16.5-8.69,23.21-23.1,23.21-14.63,0-23-5.94-23-23.21V387.35c0-16.17,8.47-23.21,23.54-23.21m0-4c-18,0-27.54,9.41-27.54,27.21v35.42c0,18.31,8.83,27.21,27,27.21,17.73,0,27.1-9.41,27.1-27.21V408a4,4,0,0,0-3.43-4,4,4,0,0,0,3.43-4V387.35c0-18.56-8.44-27.21-26.55-27.21Z"/><path d="M785.21,446.77a2,2,0,0,1-.83-.18,3.46,3.46,0,0,1-1.16-.85,2,2,0,0,1-1.75,1H760.13a2,2,0,0,1-2-2v-79.2a2,2,0,0,1,2-2h23.43a41.74,41.74,0,0,1,12.6,1.64c7.17,2.17,10.52,8.34,10.52,19.39v10.78c0,6-.79,10.45-4.18,13.22,3.61,2.71,4,7.08,4,12.3v17.82c0,3.61.26,4,.89,4.58a2,2,0,0,1-1.35,3.47Z"/><path class="cls-1" d="M783.56,365.57a40.21,40.21,0,0,1,12,1.54c6.16,1.87,9.13,7,9.13,17.49v10.78c0,7.92-1.43,11.55-6.49,13.31,5.28,1.65,6.27,4.95,6.27,12.21v17.82c0,3.63.22,4.84,1.54,6H785.21c-1.21-.55-1.43-2.75-1.43-5.94v-17.6c0-2.75-.66-3.3-2.31-3.41v26.95H760.13v-79.2h23.43m-2.09,34.65c2.09-.11,2.42-.88,2.42-2.75V386c0-2.09-.44-2.64-2.2-2.64h-.22v16.83m2.09-38.65H760.13a4,4,0,0,0-4,4v79.2a4,4,0,0,0,4,4h21.34a4.07,4.07,0,0,0,1.87-.46l.21.1a4,4,0,0,0,1.66.36H806a4,4,0,0,0,2.7-6.95l-.07-.07a14,14,0,0,1-.17-3V420.9c0-4.68-.32-9.13-3.08-12.35,3-3.6,3.3-8.55,3.3-13.17V384.6c0-7.58-1.24-18-11.94-21.31a44,44,0,0,0-13.18-1.72Z"/><path d="M808.75,446.77a2,2,0,0,1-2-2v-79.2a2,2,0,0,1,2-2h37.07a2,2,0,0,1,2,2v20.68a2,2,0,0,1-2,2H832.09v4h13.73a2,2,0,0,1,2,2v20.79a2,2,0,0,1-2,2H832.09v4.47h13.73a2,2,0,0,1,2,2v21.23a2,2,0,0,1-2,2Z"/><path class="cls-1" d="M845.82,365.57v20.68H830.09v8h15.73v20.79H830.09v8.47h15.73v21.23H808.75v-79.2h37.07m0-4H808.75a4,4,0,0,0-4,4v79.2a4,4,0,0,0,4,4h37.07a4,4,0,0,0,4-4V423.54a4,4,0,0,0-4-4H834.09v-.47h11.73a4,4,0,0,0,4-4V394.28a4,4,0,0,0-4-4H834.09v0h11.73a4,4,0,0,0,4-4V365.57a4,4,0,0,0-4-4Z"/><path d="M877.17,446.77a2,2,0,0,1-2-1.82l-.38-4.23h-3.28l-.38,4.23a2,2,0,0,1-2,1.82h-21a2,2,0,0,1-2-2.27l11-79.21a2,2,0,0,1,2-1.72h27.39a2,2,0,0,1,2,1.71l11.66,79.2a2,2,0,0,1-.47,1.6,2,2,0,0,1-1.51.69Z"/><path class="cls-1" d="M886.52,365.57l11.66,79.2h-21l-.55-6h-6.93l-.55,6h-21l11-79.2h27.39m-15.07,55.77h3.41l-1.1-10.67L873,394.5l-.55,16.17-1,10.67m15.07-59.77H859.13a4,4,0,0,0-4,3.45l-11,79.2a4,4,0,0,0,4,4.55h21a4,4,0,0,0,4-3.64l0-.34,0,.34a4,4,0,0,0,4,3.64h21a4,4,0,0,0,3-1.39,4.06,4.06,0,0,0,.93-3.19L890.47,365a4,4,0,0,0-4-3.42Z"/><path d="M901.92,446.77a2,2,0,0,1-2-2V388.14h-6.25a2,2,0,0,1-2-2V365.57a2,2,0,0,1,2-2h38.72a2,2,0,0,1,2,2v20.57a2,2,0,0,1-2,2h-6.25v56.63a2,2,0,0,1-2,2Z"/><path class="cls-1" d="M932.39,365.57v20.57h-8.25v58.63H901.92V386.14h-8.25V365.57h38.72m0-4H893.67a4,4,0,0,0-4,4v20.57a4,4,0,0,0,4,4h4.25v54.63a4,4,0,0,0,4,4h22.22a4,4,0,0,0,4-4V390.14h4.25a4,4,0,0,0,4-4V365.57a4,4,0,0,0-4-4Z"/><rect x="934.35" y="363.57" width="26.33" height="83.2" rx="2"/><path class="cls-1" d="M958.68,365.57v79.2H936.35v-79.2h22.33m0-4H936.35a4,4,0,0,0-4,4v79.2a4,4,0,0,0,4,4h22.33a4,4,0,0,0,4-4v-79.2a4,4,0,0,0-4-4Z"/><path d="M972.1,446.77a2,2,0,0,1-2-1.72L959,365.85a2,2,0,0,1,2-2.28h22.44a2,2,0,0,1,2,1.79l1.14,11.05,1.15-11.05a2,2,0,0,1,2-1.79h22a2,2,0,0,1,1.51.69,2,2,0,0,1,.47,1.59l-11.11,79.2a2,2,0,0,1-2,1.72Z"/><path class="cls-1" d="M1011.7,365.57l-11.11,79.2H972.1L961,365.57h22.44l2.42,23.32.77,35.64.66-35.64,2.42-23.32h22m0-4h-22a4,4,0,0,1-6.27,0H961a4,4,0,0,0-4,4.56l11.1,79.2a4,4,0,0,0,4,3.44h28.49a4,4,0,0,0,4-3.44l11.11-79.2a4,4,0,0,0-4-4.56Z"/><rect x="1012.01" y="363.57" width="26.33" height="83.2" rx="2"/><path class="cls-1" d="M1036.34,365.57v79.2H1014v-79.2h22.33m0-4H1014a4,4,0,0,0-4,4v79.2a4,4,0,0,0,4,4h22.33a4,4,0,0,0,4-4v-79.2a4,4,0,0,0-4-4Z"/><path d="M1048.65,446.77a2,2,0,0,1-2-2V388.14h-6.25a2,2,0,0,1-2-2V365.57a2,2,0,0,1,2-2h38.72a2,2,0,0,1,2,2v20.57a2,2,0,0,1-2,2h-6.25v56.63a2,2,0,0,1-2,2Z"/><path class="cls-1" d="M1079.12,365.57v20.57h-8.25v58.63h-22.22V386.14h-8.25V365.57h38.72m0-4H1040.4a4,4,0,0,0-4,4v20.57a4,4,0,0,0,4,4h4.25v54.63a4,4,0,0,0,4,4h22.22a4,4,0,0,0,4-4V390.14h4.25a4,4,0,0,0,4-4V365.57a4,4,0,0,0-4-4Z"/><path d="M1094.52,446.77a2,2,0,0,1-2-2V423.56L1078.61,366a2,2,0,0,1,1.94-2.47h21.9a2,2,0,0,1,2,1.68l1.35,8.39,1.53-8.43a2,2,0,0,1,2-1.64h21.68a2,2,0,0,1,1.57.77,2,2,0,0,1,.36,1.72l-14,55.31v23.4a2,2,0,0,1-2,2Z"/><path class="cls-1" d="M1130.94,365.57l-14.08,55.55v23.65h-22.34V423.32l-14-57.75h21.9l2.63,16.39.77,17.05.44-17.05,3-16.39h21.68m0-4h-21.68a4,4,0,0,0-3.41,1.91,4,4,0,0,0-3.4-1.91h-21.9a4,4,0,0,0-3.88,4.94l13.85,57.29v21a4,4,0,0,0,4,4h22.34a4,4,0,0,0,4-4V421.62l14-55.07a4,4,0,0,0-3.87-5Z"/><path d="M1182,446.77a2,2,0,0,1-2-1.82l-.38-4.23h-3.28l-.39,4.23a2,2,0,0,1-2,1.82h-21a2,2,0,0,1-2-2.27l11-79.21a2,2,0,0,1,2-1.72h27.39a2,2,0,0,1,2,1.71l11.66,79.2a2,2,0,0,1-.46,1.6,2,2,0,0,1-1.52.69Z"/><path class="cls-1" d="M1191.32,365.57l11.66,79.2h-21l-.55-6h-6.93l-.55,6h-21l11-79.2h27.39m-15.07,55.77h3.41l-1.1-10.67-.77-16.17-.55,16.17-1,10.67m15.07-59.77h-27.39a4,4,0,0,0-4,3.45l-11,79.2a4,4,0,0,0,4,4.55h21a4,4,0,0,0,4-3.64l0-.34,0,.34a4,4,0,0,0,4,3.64h21a4,4,0,0,0,4-4.58L1195.28,365a4,4,0,0,0-4-3.42Z"/><path d="M1231.14,446.77a2,2,0,0,1-2-1.64l-1.09-6v5.62a2,2,0,0,1-2,2h-21a2,2,0,0,1-2-2v-79.2a2,2,0,0,1,2-2h25.41a2,2,0,0,1,2,1.65l.65,3.64v-3.29a2,2,0,0,1,2-2h20.46a2,2,0,0,1,2,2v79.2a2,2,0,0,1-2,2Z"/><path class="cls-1" d="M1255.56,365.57v79.2h-24.42l-9.57-52.36,4.51,34.54v17.82h-21v-79.2h25.41l9.57,53.57-5-38.06V365.57h20.46m0-4H1235.1a4,4,0,0,1-4.62,0h-25.41a4,4,0,0,0-4,4v79.2a4,4,0,0,0,4,4h21a4,4,0,0,1,5.06,0h24.42a4,4,0,0,0,4-4v-79.2a4,4,0,0,0-4-4Z"/><path d="M1260,446.77a2,2,0,0,1-2-2v-79.2a2,2,0,0,1,2-2h22.88a36.16,36.16,0,0,1,12.91,2.22c8.33,3.51,12.52,10.94,12.52,22.11v34.43c0,6.12-1.11,10.8-3.41,14.3-4.25,6.72-11.78,10.14-22.35,10.14Z"/><path class="cls-1" d="M1282.84,365.57a34.15,34.15,0,0,1,12.21,2.09c7,3,11.22,9.13,11.22,20.24v34.43c0,5.61-1,10-3.08,13.2-4.18,6.6-11.55,9.24-20.68,9.24H1260v-79.2h22.88M1281.41,426c2.09,0,2.42-.33,2.42-3.85V387c0-2.75-.44-3.19-2.31-3.19h-.11V426m1.43-64.39H1260a4,4,0,0,0-4,4v79.2a4,4,0,0,0,4,4h22.55c11.29,0,19.38-3.73,24-11.07,2.5-3.84,3.72-8.86,3.72-15.37V387.9c0-12-4.6-20.1-13.66-23.93l-.15-.06a38.31,38.31,0,0,0-13.62-2.34Z"/><path d="M56,566.78a2,2,0,0,1-.83-.18,3.56,3.56,0,0,1-1.16-.85,2,2,0,0,1-1.75,1H31a2,2,0,0,1-2-2v-79.2a2,2,0,0,1,2-2H54.38A41.65,41.65,0,0,1,67,485.22c7.17,2.17,10.52,8.34,10.52,19.39v10.78c0,6-.79,10.45-4.18,13.22,3.61,2.71,4,7.08,4,12.3v17.82c0,3.61.26,4,.89,4.58a2,2,0,0,1-1.35,3.47Z"/><path class="cls-1" d="M54.38,485.58a40.21,40.21,0,0,1,12,1.54c6.16,1.87,9.13,7,9.13,17.49v10.78c0,7.92-1.43,11.55-6.49,13.31,5.28,1.65,6.27,4.95,6.27,12.21v17.82c0,3.63.22,4.84,1.54,6H56c-1.21-.55-1.43-2.75-1.43-5.94v-17.6c0-2.75-.66-3.3-2.31-3.41v26.95H31v-79.2H54.38m-2.09,34.65c2.09-.11,2.42-.88,2.42-2.75V506c0-2.09-.44-2.64-2.2-2.64h-.22v16.83m2.09-38.65H31a4,4,0,0,0-4,4v79.2a4,4,0,0,0,4,4H52.29a4.07,4.07,0,0,0,1.87-.46l.22.1a3.92,3.92,0,0,0,1.65.36H76.82a4,4,0,0,0,2.7-6.95l-.07-.07a14,14,0,0,1-.17-3V540.91c0-4.68-.31-9.13-3.08-12.35,3-3.6,3.3-8.55,3.3-13.17V504.61c0-7.58-1.24-18-11.94-21.31a43.9,43.9,0,0,0-13.18-1.72Z"/><path d="M79.57,566.78a2,2,0,0,1-2-2v-79.2a2,2,0,0,1,2-2h37.07a2,2,0,0,1,2,2v20.68a2,2,0,0,1-2,2H102.91v4h13.73a2,2,0,0,1,2,2v20.79a2,2,0,0,1-2,2H102.91v4.47h13.73a2,2,0,0,1,2,2v21.23a2,2,0,0,1-2,2Z"/><path class="cls-1" d="M116.64,485.58v20.68H100.91v8h15.73v20.79H100.91v8.47h15.73v21.23H79.57v-79.2h37.07m0-4H79.57a4,4,0,0,0-4,4v79.2a4,4,0,0,0,4,4h37.07a4,4,0,0,0,4-4V543.55a4,4,0,0,0-4-4H104.91v-.47h11.73a4,4,0,0,0,4-4V514.29a4,4,0,0,0-4-4H104.91v0h11.73a4,4,0,0,0,4-4V485.58a4,4,0,0,0-4-4Z"/><path d="M142.93,568.21c-17.21,0-24.88-6.89-24.88-22.35V535.3a2,2,0,0,1,2-2h16.11l-2.2-1.19a59.65,59.65,0,0,1-9.37-6.28c-5.19-4.26-6.21-9.27-6.21-16.49v-4.73c0-15,8.56-22.57,25.43-22.57,20.11,0,24.33,11.38,24.33,20.92v9.57a2,2,0,0,1-2,2H151l1.17.65a60.84,60.84,0,0,1,9.75,6.24c4.88,4.26,6.58,8.43,6.58,16v8.47C168.47,561.32,160.59,568.21,142.93,568.21Z"/><path class="cls-1" d="M143.81,484C158,484,166.14,490,166.14,503v9.57H144.69v-8.14c0-2.53.11-3-1.1-3-.88,0-1.1.11-1.1,2.64v5.06a4.36,4.36,0,0,0,.44,2.2c.55,1.21,2.64,2.53,8.25,5.61a59.54,59.54,0,0,1,9.46,6.05c4.4,3.85,5.83,7.59,5.83,14.41v8.47c0,14.3-7,20.35-23.54,20.35s-22.88-6.38-22.88-20.35V535.3h22.22v9.9c0,1.87.33,2.31,1.1,2.31s1.21-.33,1.21-2.64v-4.51a9.48,9.48,0,0,0-.44-3.41c-.55-1.76-2.86-3.19-9.24-6.6a57.38,57.38,0,0,1-9-6.05c-4.29-3.52-5.5-7.59-5.5-15v-4.73c0-13.42,7.37-20.57,23.43-20.57m0-4c-22.67,0-27.43,13.36-27.43,24.57v4.73c0,7.61,1.16,13.28,6.94,18a52.21,52.21,0,0,0,5.38,3.93h-8.65a4,4,0,0,0-4,4v10.56c0,16.61,8.54,24.35,26.88,24.35,18.79,0,27.54-7.74,27.54-24.35v-8.47c0-8.11-1.95-12.83-7.2-17.42l-.13-.11a54.57,54.57,0,0,0-4.67-3.33h7.67a4,4,0,0,0,4-4V503c0-8.56-3.42-22.92-26.33-22.92Z"/><rect x="168.54" y="483.58" width="26.33" height="83.2" rx="2"/><path class="cls-1" d="M192.87,485.58v79.2H170.54v-79.2h22.33m0-4H170.54a4,4,0,0,0-4,4v79.2a4,4,0,0,0,4,4h22.33a4,4,0,0,0,4-4v-79.2a4,4,0,0,0-4-4Z"/><path d="M197.38,566.78a2,2,0,0,1-2-2v-79.2a2,2,0,0,1,2-2h22.44a2,2,0,0,1,2,2v55.09h9.66a2,2,0,0,1,2,2v22.11a2,2,0,0,1-2,2Z"/><path class="cls-1" d="M219.82,485.58v57.09h11.66v22.11h-34.1v-79.2h22.44m0-4H197.38a4,4,0,0,0-4,4v79.2a4,4,0,0,0,4,4h34.1a4,4,0,0,0,4-4V542.67a4,4,0,0,0-4-4h-7.66V485.58a4,4,0,0,0-4-4Z"/><rect x="233.55" y="483.58" width="26.33" height="83.2" rx="2"/><path class="cls-1" d="M257.88,485.58v79.2H235.55v-79.2h22.33m0-4H235.55a4,4,0,0,0-4,4v79.2a4,4,0,0,0,4,4h22.33a4,4,0,0,0,4-4v-79.2a4,4,0,0,0-4-4Z"/><path d="M262.39,566.78a2,2,0,0,1-2-2v-79.2a2,2,0,0,1,2-2h37.07a2,2,0,0,1,2,2v20.68a2,2,0,0,1-2,2H285.73v4h13.73a2,2,0,0,1,2,2v20.79a2,2,0,0,1-2,2H285.73v4.47h13.73a2,2,0,0,1,2,2v21.23a2,2,0,0,1-2,2Z"/><path class="cls-1" d="M299.46,485.58v20.68H283.73v8h15.73v20.79H283.73v8.47h15.73v21.23H262.39v-79.2h37.07m0-4H262.39a4,4,0,0,0-4,4v79.2a4,4,0,0,0,4,4h37.07a4,4,0,0,0,4-4V543.55a4,4,0,0,0-4-4H287.73v-.47h11.73a4,4,0,0,0,4-4V514.29a4,4,0,0,0-4-4H287.73v0h11.73a4,4,0,0,0,4-4V485.58a4,4,0,0,0-4-4Z"/><path d="M329.71,566.78a2,2,0,0,1-2-1.64l-1.09-6v5.62a2,2,0,0,1-2,2h-21a2,2,0,0,1-2-2v-79.2a2,2,0,0,1,2-2h25.41a2,2,0,0,1,2,1.65l.66,3.64v-3.29a2,2,0,0,1,2-2h20.46a2,2,0,0,1,2,2v79.2a2,2,0,0,1-2,2Z"/><path class="cls-1" d="M354.13,485.58v79.2H329.71l-9.57-52.36L324.65,547v17.82h-21v-79.2h25.41l9.57,53.57-4.95-38.06V485.58h20.46m0-4H333.67a4,4,0,0,0-2.31.73,4,4,0,0,0-2.31-.73H303.64a4,4,0,0,0-4,4v79.2a4,4,0,0,0,4,4h21a4,4,0,0,0,2.53-.9,4,4,0,0,0,2.53.9h24.42a4,4,0,0,0,4-4v-79.2a4,4,0,0,0-4-4Z"/><path d="M381.29,568c-17,0-25-8-25-25.21V507.36c0-16.73,8.6-25.21,25.54-25.21s24.55,7.77,24.55,25.21v12.76a2,2,0,0,1-2,2h-22l-.31,0v4l.31,0h22a2,2,0,0,1,2,2v14.74C406.39,559.27,397.71,568,381.29,568Z"/><path class="cls-1" d="M381.84,484.15c15.73,0,22.55,6.71,22.55,23.21v12.76h-22V507.36c0-4.18-.33-4.29-1.1-4.29-1.21,0-1.21.33-1.21,4.29V542c0,4,.22,4.29,1.21,4.29s1.1-.33,1.1-4.29V528h22v14.74c0,16.5-8.69,23.21-23.1,23.21-14.63,0-23-5.94-23-23.21V507.36c0-16.17,8.47-23.21,23.54-23.21m0-4c-18,0-27.54,9.41-27.54,27.21v35.42c0,18.31,8.83,27.21,27,27.21,17.73,0,27.1-9.41,27.1-27.21V528a4,4,0,0,0-3.43-4,4,4,0,0,0,3.43-4V507.36c0-18.56-8.43-27.21-26.55-27.21Z"/><path d="M418,566.78a2,2,0,0,1-2-2V543.57l-13.91-57.52a2,2,0,0,1,1.94-2.47H426a2,2,0,0,1,2,1.68l1.35,8.39,1.53-8.43a2,2,0,0,1,2-1.64h21.67a2,2,0,0,1,1.94,2.49l-14,55.31v23.4a2,2,0,0,1-2,2Z"/><path class="cls-1" d="M454.44,485.58l-14.08,55.55v23.65H418V543.33l-14-57.75H426L428.59,502l.77,17,.44-17,3-16.39h21.67m0-4H432.77a4,4,0,0,0-3.41,1.91,4,4,0,0,0-3.41-1.91H404.06a4,4,0,0,0-3.88,4.94L414,543.81v21a4,4,0,0,0,4,4h22.33a4,4,0,0,0,4-4V541.63l14-55.07a4,4,0,0,0-3.88-5Z"/><path d="M505.48,566.78a2,2,0,0,1-2-1.82l-.39-4.23h-3.27l-.39,4.23a2,2,0,0,1-2,1.82h-21a2,2,0,0,1-2-2.28l11-79.2a2,2,0,0,1,2-1.72h27.39a2,2,0,0,1,2,1.71l11.66,79.2a2,2,0,0,1-.47,1.6,2,2,0,0,1-1.51.69Z"/><path class="cls-1" d="M514.83,485.58l11.66,79.2h-21l-.55-6H498l-.55,6h-21l11-79.2h27.39m-15.07,55.77h3.41l-1.1-10.67-.77-16.17-.55,16.17-1,10.67m15.07-59.77H487.44a4,4,0,0,0-4,3.45l-11,79.2a4,4,0,0,0,4,4.55h21a4,4,0,0,0,4-3.64l0-.34,0,.34a4,4,0,0,0,4,3.64h21a4,4,0,0,0,4-4.58L518.79,485a4,4,0,0,0-4-3.42Z"/><path d="M530.23,566.78a2,2,0,0,1-2-2V508.15H522a2,2,0,0,1-2-2V485.58a2,2,0,0,1,2-2H560.7a2,2,0,0,1,2,2v20.57a2,2,0,0,1-2,2h-6.25v56.63a2,2,0,0,1-2,2Z"/><path class="cls-1" d="M560.7,485.58v20.57h-8.25v58.63H530.23V506.15H522V485.58H560.7m0-4H522a4,4,0,0,0-4,4v20.57a4,4,0,0,0,4,4h4.25v54.63a4,4,0,0,0,4,4h22.22a4,4,0,0,0,4-4V510.15h4.25a4,4,0,0,0,4-4V485.58a4,4,0,0,0-4-4Z"/><path d="M595,566.78a2,2,0,0,1-2-2V508.15h-6.25a2,2,0,0,1-2-2V485.58a2,2,0,0,1,2-2h38.72a2,2,0,0,1,2,2v20.57a2,2,0,0,1-2,2h-6.25v56.63a2,2,0,0,1-2,2Z"/><path class="cls-1" d="M625.49,485.58v20.57h-8.25v58.63H595V506.15h-8.25V485.58h38.72m0-4H586.77a4,4,0,0,0-4,4v20.57a4,4,0,0,0,4,4H591v54.63a4,4,0,0,0,4,4h22.22a4,4,0,0,0,4-4V510.15h4.25a4,4,0,0,0,4-4V485.58a4,4,0,0,0-4-4Z"/><path d="M653,566.78a2,2,0,0,1-1.1-.33,2,2,0,0,1-1.1.33H629.34a2,2,0,0,1-2-2v-79.2a2,2,0,0,1,2-2h21.45a2,2,0,0,1,1.1.33,2,2,0,0,1,1.1-.33h21.56a2,2,0,0,1,2,2v79.2a2,2,0,0,1-2,2Z"/><path class="cls-1" d="M674.55,485.58v79.2H653V535.19h-2.2v29.59H629.34v-79.2h21.45v29.15H653V485.58h21.56m0-4H653a4.11,4.11,0,0,1-2.2,0H629.34a4,4,0,0,0-4,4v79.2a4,4,0,0,0,4,4h21.45a4.11,4.11,0,0,1,2.2,0h21.56a4,4,0,0,0,4-4v-79.2a4,4,0,0,0-4-4Z"/><rect x="677.06" y="483.58" width="26.33" height="83.2" rx="2"/><path class="cls-1" d="M701.39,485.58v79.2H679.06v-79.2h22.33m0-4H679.06a4,4,0,0,0-4,4v79.2a4,4,0,0,0,4,4h22.33a4,4,0,0,0,4-4v-79.2a4,4,0,0,0-4-4Z"/><path d="M728.12,568.21c-17.21,0-24.88-6.89-24.88-22.35V535.3a2,2,0,0,1,2-2h16.1l-2.19-1.19a59.65,59.65,0,0,1-9.37-6.28c-5.19-4.26-6.21-9.27-6.21-16.49v-4.73c0-15,8.55-22.57,25.43-22.57,20.11,0,24.33,11.38,24.33,20.92v9.57a2,2,0,0,1-2,2H736.16l1.17.65a61.75,61.75,0,0,1,9.75,6.24c4.87,4.26,6.58,8.43,6.58,16v8.47C753.66,561.32,745.78,568.21,728.12,568.21Z"/><path class="cls-1" d="M729,484c14.19,0,22.33,5.94,22.33,18.92v9.57H729.88v-8.14c0-2.53.11-3-1.1-3-.88,0-1.1.11-1.1,2.64v5.06a4.36,4.36,0,0,0,.44,2.2c.55,1.21,2.64,2.53,8.25,5.61a59.54,59.54,0,0,1,9.46,6.05c4.4,3.85,5.83,7.59,5.83,14.41v8.47c0,14.3-7,20.35-23.54,20.35s-22.88-6.38-22.88-20.35V535.3h22.22v9.9c0,1.87.33,2.31,1.1,2.31s1.21-.33,1.21-2.64v-4.51a9.48,9.48,0,0,0-.44-3.41c-.55-1.76-2.86-3.19-9.24-6.6a57.38,57.38,0,0,1-9-6.05c-4.29-3.52-5.5-7.59-5.5-15v-4.73c0-13.42,7.37-20.57,23.43-20.57m0-4c-22.67,0-27.43,13.36-27.43,24.57v4.73c0,7.61,1.16,13.28,6.94,18a52.21,52.21,0,0,0,5.38,3.93h-8.65a4,4,0,0,0-4,4v10.56c0,16.61,8.54,24.35,26.88,24.35,18.79,0,27.54-7.74,27.54-24.35v-8.47c0-8.11-1.95-12.83-7.2-17.42l-.13-.11a54.57,54.57,0,0,0-4.67-3.33h7.67a4,4,0,0,0,4-4V503c0-8.56-3.42-22.92-26.33-22.92Z"/><path d="M789.28,566.78a2,2,0,0,1-2-2V543.57l-13.92-57.52a2,2,0,0,1,1.95-2.47H797.2a2,2,0,0,1,2,1.68l1.35,8.39,1.53-8.43a2,2,0,0,1,2-1.64h21.67a2,2,0,0,1,1.57.77,2,2,0,0,1,.36,1.72l-14,55.31v23.4a2,2,0,0,1-2,2Z"/><path class="cls-1" d="M825.69,485.58l-14.08,55.55v23.65H789.28V543.33l-14-57.75H797.2L799.84,502l.77,17,.44-17,3-16.39h21.67m0-4H804a4,4,0,0,1-6.82,0H775.31a4,4,0,0,0-3.89,4.94l13.86,57.29v21a4,4,0,0,0,4,4h22.33a4,4,0,0,0,4-4V541.63l13.95-55.07a4,4,0,0,0-3.87-5Z"/><path d="M827.22,566.78a2,2,0,0,1-2-2v-79.2a2,2,0,0,1,2-2h37.07a2,2,0,0,1,2,2v20.68a2,2,0,0,1-2,2H850.56v4h13.73a2,2,0,0,1,2,2v20.79a2,2,0,0,1-2,2H850.56v4.47h13.73a2,2,0,0,1,2,2v21.23a2,2,0,0,1-2,2Z"/><path class="cls-1" d="M864.29,485.58v20.68H848.56v8h15.73v20.79H848.56v8.47h15.73v21.23H827.22v-79.2h37.07m0-4H827.22a4,4,0,0,0-4,4v79.2a4,4,0,0,0,4,4h37.07a4,4,0,0,0,4-4V543.55a4,4,0,0,0-4-4H852.56v-.47h11.73a4,4,0,0,0,4-4V514.29a4,4,0,0,0-4-4H852.56v0h11.73a4,4,0,0,0,4-4V485.58a4,4,0,0,0-4-4Z"/><path d="M895.75,566.78a2,2,0,0,1-2-1.82l-.38-4.23H890.1l-.38,4.23a2,2,0,0,1-2,1.82h-21a2,2,0,0,1-1.5-.69,2,2,0,0,1-.48-1.59l11-79.2a2,2,0,0,1,2-1.72H905.1a2,2,0,0,1,2,1.71l11.66,79.2a2,2,0,0,1-2,2.29Z"/><path class="cls-1" d="M905.1,485.58l11.66,79.2h-21l-.55-6h-6.93l-.55,6h-21l11-79.2H905.1M890,541.35h3.41l-1.1-10.67-.77-16.17L891,530.68l-1,10.67m15.07-59.77H877.71a4,4,0,0,0-4,3.45l-11,79.2a4,4,0,0,0,4,4.55h21a4,4,0,0,0,4-3.64l0-.34,0,.34a4,4,0,0,0,4,3.64h21a4,4,0,0,0,4-4.58L909.06,485a4,4,0,0,0-4-3.42Z"/><path d="M944,566.78a2,2,0,0,1-.82-.18,3.36,3.36,0,0,1-1.16-.85,2,2,0,0,1-1.76,1H919a2,2,0,0,1-2-2v-79.2a2,2,0,0,1,2-2h23.43A41.77,41.77,0,0,1,955,485.22c7.16,2.17,10.51,8.34,10.51,19.39v10.78c0,6-.78,10.45-4.17,13.22,3.61,2.71,3.95,7.08,3.95,12.3v17.82c0,3.61.26,4,.9,4.58a2,2,0,0,1-1.36,3.47Z"/><path class="cls-1" d="M942.39,485.58a40.21,40.21,0,0,1,12,1.54c6.16,1.87,9.13,7,9.13,17.49v10.78c0,7.92-1.43,11.55-6.49,13.31,5.28,1.65,6.27,4.95,6.27,12.21v17.82c0,3.63.22,4.84,1.54,6H944c-1.21-.55-1.43-2.75-1.43-5.94v-17.6c0-2.75-.66-3.3-2.31-3.41v26.95H919v-79.2h23.43m-2.09,34.65c2.09-.11,2.42-.88,2.42-2.75V506c0-2.09-.44-2.64-2.2-2.64h-.22v16.83m2.09-38.65H919a4,4,0,0,0-4,4v79.2a4,4,0,0,0,4,4H940.3a4,4,0,0,0,1.87-.46l.22.1a3.92,3.92,0,0,0,1.65.36h20.79a4,4,0,0,0,2.71-6.95l-.07-.07a12.9,12.9,0,0,1-.18-3V540.91c0-4.68-.31-9.13-3.07-12.35,3-3.6,3.29-8.55,3.29-13.17V504.61c0-7.58-1.23-18-11.93-21.31a44,44,0,0,0-13.19-1.72Z"/><path d="M970.92,528.67c-.79,0-1.6,0-2.45-.06a2,2,0,0,1-1.9-2l.11-9.79a2.05,2.05,0,0,1,.61-1.42,2,2,0,0,1,1.39-.56h.63a10.16,10.16,0,0,0,4.83-.84c-7.25-.66-9.66-4.72-9.66-15.32a27,27,0,0,1,1.23-9.27c2.37-5.7,8-6.48,13.64-6.48,3.85,0,6.66.41,8.61,1.27,5.13,2,6.15,7.76,6.15,17.12C994.11,520.23,987,528.67,970.92,528.67Z"/><path class="cls-1" d="M979.35,484.92c3.41,0,6,.33,7.81,1.1,3.74,1.43,5,5.61,5,15.29,0,16.59-5.31,25.36-21.19,25.36-.76,0-1.54,0-2.35-.06l.11-9.79h.63c5.17,0,7.55-1.36,8.5-4.85a5.36,5.36,0,0,1-1.32.11c-7.7,0-10-2.64-10-13.42a25.35,25.35,0,0,1,1.1-8.58c1.65-4,5.17-5.17,11.77-5.17m0-4c-6.07,0-12.66.91-15.46,7.63l-.06.16a28.61,28.61,0,0,0-1.35,10c0,6.64.86,10.46,2.95,13.19a9.83,9.83,0,0,0,1.36,1.44,3.77,3.77,0,0,0-.89.65,4,4,0,0,0-1.22,2.83l-.11,9.79a4,4,0,0,0,3.8,4c.87,0,1.73.06,2.55.06,22.58,0,25.19-16.76,25.19-29.36,0-8.14-.57-16.3-7.43-19-2.23-1-5.2-1.4-9.33-1.4Z"/><path d="M1018,568.21c-17.2,0-24.88-6.89-24.88-22.35V535.3a2,2,0,0,1,2-2h16.11l-2.2-1.19a59.65,59.65,0,0,1-9.37-6.28c-5.19-4.26-6.21-9.27-6.21-16.49v-4.73c0-15,8.56-22.57,25.43-22.57,20.11,0,24.33,11.38,24.33,20.92v9.57a2,2,0,0,1-2,2H1026l1.18.65a61.17,61.17,0,0,1,9.74,6.24c4.88,4.26,6.58,8.43,6.58,16v8.47C1043.5,561.32,1035.63,568.21,1018,568.21Z"/><path class="cls-1" d="M1018.84,484c14.19,0,22.33,5.94,22.33,18.92v9.57h-21.45v-8.14c0-2.53.11-3-1.1-3-.88,0-1.1.11-1.1,2.64v5.06a4.36,4.36,0,0,0,.44,2.2c.55,1.21,2.64,2.53,8.25,5.61a59.54,59.54,0,0,1,9.46,6.05c4.4,3.85,5.83,7.59,5.83,14.41v8.47c0,14.3-7,20.35-23.54,20.35s-22.88-6.38-22.88-20.35V535.3h22.22v9.9c0,1.87.33,2.31,1.1,2.31s1.21-.33,1.21-2.64v-4.51a9.48,9.48,0,0,0-.44-3.41c-.55-1.76-2.86-3.19-9.24-6.6a57.38,57.38,0,0,1-9-6.05c-4.29-3.52-5.5-7.59-5.5-15v-4.73c0-13.42,7.37-20.57,23.43-20.57m0-4c-22.67,0-27.43,13.36-27.43,24.57v4.73c0,7.61,1.17,13.28,7,18a52,52,0,0,0,5.37,3.93h-8.65a4,4,0,0,0-4,4v10.56c0,16.61,8.55,24.35,26.88,24.35,18.79,0,27.54-7.74,27.54-24.35v-8.47c0-8.11-2-12.83-7.19-17.42l-.14-.11a53,53,0,0,0-4.67-3.33h7.67a4,4,0,0,0,4-4V503c0-8.56-3.42-22.92-26.33-22.92Z"/><path d="M1068.12,566.78a2,2,0,0,1-2-2v-79.2a2,2,0,0,1,2-2h34.76a2,2,0,0,1,2,2v21.34a2,2,0,0,1-2,2h-11.53v3.7h11.53a2,2,0,0,1,2,2V536a2,2,0,0,1-2,2h-11.53v26.82a2,2,0,0,1-2,2Z"/><path class="cls-1" d="M1102.88,485.58v21.34h-13.53v7.7h13.53V536h-13.53v28.82h-21.23v-79.2h34.76m0-4h-34.76a4,4,0,0,0-4,4v79.2a4,4,0,0,0,4,4h21.23a4,4,0,0,0,4-4V540h9.53a4,4,0,0,0,4-4V514.62a4,4,0,0,0-2.91-3.85,4,4,0,0,0,2.91-3.85V485.58a4,4,0,0,0-4-4Z"/><path d="M1106.84,566.78a2,2,0,0,1-2-2v-79.2a2,2,0,0,1,2-2h22.44a2,2,0,0,1,2,2v55.09h9.66a2,2,0,0,1,2,2v22.11a2,2,0,0,1-2,2Z"/><path class="cls-1" d="M1129.28,485.58v57.09h11.66v22.11h-34.1v-79.2h22.44m0-4h-22.44a4,4,0,0,0-4,4v79.2a4,4,0,0,0,4,4h34.1a4,4,0,0,0,4-4V542.67a4,4,0,0,0-4-4h-7.66V485.58a4,4,0,0,0-4-4Z"/><path d="M1172.4,566.78a2,2,0,0,1-2-1.82l-.39-4.23h-3.27l-.39,4.23a2,2,0,0,1-2,1.82h-21a2,2,0,0,1-2-2.28l11-79.2a2,2,0,0,1,2-1.72h27.39a2,2,0,0,1,2,1.71l11.66,79.2a2,2,0,0,1-.47,1.6,2,2,0,0,1-1.51.69Z"/><path class="cls-1" d="M1181.75,485.58l11.66,79.2h-21l-.55-6h-6.93l-.55,6h-21l11-79.2h27.39m-15.07,55.77h3.41l-1.1-10.67-.77-16.17-.55,16.17-1,10.67m15.07-59.77h-27.39a4,4,0,0,0-4,3.45l-11,79.2a4,4,0,0,0,4,4.55h21a4,4,0,0,0,4-3.64l0-.34,0,.34a4,4,0,0,0,4,3.64h21a4,4,0,0,0,4-4.58L1185.71,485a4,4,0,0,0-4-3.42Z"/><path d="M1243.68,566.78a2,2,0,0,0-3.63,0h-18.7a2,2,0,0,0-3.52,0h-22.22a2,2,0,0,1-2-2v-79.2a2,2,0,0,1,2-2h32.45a2,2,0,0,1,2,1.84l.72,8.89.69-8.88a2,2,0,0,1,2-1.85h32.12a2,2,0,0,1,2,2v79.2a2,2,0,0,1-2,2Z"/><path class="cls-1" d="M1265.57,485.58v79.2h-21.89v-14l3.52-47.74-7.15,61.71h-18.7L1214.2,502l3.63,48.95v13.86h-22.22v-79.2h32.45l2.2,27.17.55,31.46.55-31.46,2.09-27.17h32.12m0-4h-32.12a4,4,0,0,0-2.7,1,4,4,0,0,0-2.69-1h-32.45a4,4,0,0,0-4,4v79.2a4,4,0,0,0,4,4h22.22a4,4,0,0,1,3.52,0h18.7a4.06,4.06,0,0,0,1.81-.43,4.13,4.13,0,0,0,1.82.43h21.89a4,4,0,0,0,4-4v-79.2a4,4,0,0,0-4-4Z"/><path d="M1270,566.78a2,2,0,0,1-2-2v-79.2a2,2,0,0,1,2-2H1307a2,2,0,0,1,2,2v20.68a2,2,0,0,1-2,2h-13.73v4H1307a2,2,0,0,1,2,2v20.79a2,2,0,0,1-2,2h-13.73v4.47H1307a2,2,0,0,1,2,2v21.23a2,2,0,0,1-2,2Z"/><path class="cls-1" d="M1307,485.58v20.68h-15.73v8H1307v20.79h-15.73v8.47H1307v21.23H1270v-79.2H1307m0-4H1270a4,4,0,0,0-4,4v79.2a4,4,0,0,0,4,4H1307a4,4,0,0,0,4-4V543.55a4,4,0,0,0-4-4h-11.73v-.47H1307a4,4,0,0,0,4-4V514.29a4,4,0,0,0-4-4h-11.73v0H1307a4,4,0,0,0,4-4V485.58a4,4,0,0,0-4-4Z"/><path d="M1356.65,568c-17.05,0-25-8-25-25.21V507.36c0-16.73,8.59-25.21,25.54-25.21s24.55,7.77,24.55,25.21v12.76a2,2,0,0,1-2,2h-22l-.31,0v4l.31,0h22a2,2,0,0,1,2,2v14.74C1381.75,559.27,1373.07,568,1356.65,568Z"/><path class="cls-1" d="M1357.2,484.15c15.73,0,22.55,6.71,22.55,23.21v12.76h-22V507.36c0-4.18-.33-4.29-1.1-4.29-1.21,0-1.21.33-1.21,4.29V542c0,4,.22,4.29,1.21,4.29s1.1-.33,1.1-4.29V528h22v14.74c0,16.5-8.69,23.21-23.1,23.21-14.63,0-23-5.94-23-23.21V507.36c0-16.17,8.47-23.21,23.54-23.21m0-4c-18,0-27.54,9.41-27.54,27.21v35.42c0,18.31,8.82,27.21,27,27.21,17.73,0,27.1-9.41,27.1-27.21V528a4,4,0,0,0-3.43-4,4,4,0,0,0,3.43-4V507.36c0-18.56-8.44-27.21-26.55-27.21Z"/><path d="M1406.81,568c-17,0-25.21-8.25-25.21-25.21V507.36c0-16.49,8.71-25.21,25.21-25.21a33.41,33.41,0,0,1,12.85,2.46c8.22,3.72,12.36,11.37,12.36,22.75v35.42c0,6.22-1.07,11-3.27,14.58C1424.85,564.39,1417.45,568,1406.81,568Z"/><path class="cls-1" d="M1406.81,484.15a31.63,31.63,0,0,1,12.1,2.31c7,3.19,11.11,9.79,11.11,20.9v35.42c0,5.61-.88,10.12-3,13.53-3.85,6.93-11,9.68-20.24,9.68-14.63,0-23.21-6.27-23.21-23.21V507.36c0-16.61,8.91-23.21,23.21-23.21m0,62.15c1.21,0,1.21-.33,1.21-4.29V507.36c0-4,0-4.29-1.21-4.29s-1.21.33-1.21,4.29V542c0,4,0,4.29,1.21,4.29m0-66.15c-8.46,0-15.09,2.17-19.69,6.44-5,4.64-7.52,11.62-7.52,20.77v35.42c0,18.06,9.15,27.21,27.21,27.21,11.38,0,19.36-3.92,23.69-11.66,2.37-3.9,3.52-9,3.52-15.55V507.36c0-12.24-4.53-20.5-13.46-24.54l-.15-.07a35.48,35.48,0,0,0-13.6-2.6Z"/><path d="M1460.26,566.78a2,2,0,0,1-2-1.64l-1.09-6v5.62a2,2,0,0,1-2,2h-21a2,2,0,0,1-2-2v-79.2a2,2,0,0,1,2-2h25.41a2,2,0,0,1,2,1.65l.65,3.64v-3.29a2,2,0,0,1,2-2h20.46a2,2,0,0,1,2,2v79.2a2,2,0,0,1-2,2Z"/><path class="cls-1" d="M1484.68,485.58v79.2h-24.42l-9.57-52.36,4.52,34.54v17.82h-21v-79.2h25.41l9.57,53.57-5-38.06V485.58h20.46m0-4h-20.46a4,4,0,0,1-4.62,0h-25.41a4,4,0,0,0-4,4v79.2a4,4,0,0,0,4,4h21a4,4,0,0,1,5,0h24.42a4,4,0,0,0,4-4v-79.2a4,4,0,0,0-4-4Z"/><path d="M1501,567.66a30.19,30.19,0,0,1-8.48-1.07l-.12,0c-5-1.83-6-7-6-14.86,0-4.27.38-7.19,1.23-9.49a.42.42,0,0,1,0-.1c2.16-5,6.76-6.05,13.49-6.05,4.11,0,6.56.33,8.44,1.13,5.17,1.87,6.21,6.94,6.21,14.51,0,4.42-.4,7.57-1.22,9.61C1512.45,567.17,1506.93,567.66,1501,567.66Z"/><path class="cls-1" d="M1501.07,538.05c3.41,0,5.94.22,7.7,1,3.74,1.32,5,4.84,5,12.65,0,4-.33,7-1.1,8.91-1.43,4.18-4.84,5.06-11.66,5.06a28.42,28.42,0,0,1-7.92-1c-3.63-1.32-4.73-5.06-4.73-13,0-4,.33-6.71,1.1-8.8,1.65-3.85,5.06-4.84,11.66-4.84m0-4c-5.91,0-12.46.56-15.33,7.26a1.67,1.67,0,0,0-.08.2c-.93,2.53-1.35,5.67-1.35,10.18,0,6.8.57,14.27,7.37,16.74l.23.08a32.89,32.89,0,0,0,9,1.15c6.44,0,12.93-.59,15.41-7.65.92-2.32,1.35-5.6,1.35-10.32,0-6.6-.58-13.85-7.48-16.37-2.13-.9-4.8-1.27-9.17-1.27Z"/><path d="M1540.11,522.12a2,2,0,0,1-2-2v-8.91a2,2,0,0,1,2-2,10,10,0,0,0,4.26-.65,10.74,10.74,0,0,1-3-.77,5.87,5.87,0,0,1-2.77-2.05c-1.88,10.88-8.54,16.38-19.85,16.38h-.3a2,2,0,0,1-2-2v-8.91a2,2,0,0,1,2-2,10.08,10.08,0,0,0,4.2-.65,12.29,12.29,0,0,1-3-.76c-4.32-1.55-4.92-6.52-4.92-11.66,0-9.88,3.12-13.22,12.34-13.22,3.34,0,5.45.36,7,1.19a7.16,7.16,0,0,1,3.69,3.88c2-4.45,6.51-5.07,11-5.07,3.34,0,5.45.36,7,1.19,4.32,2,5.19,7,5.19,14.56,0,15.56-6.94,23.45-20.63,23.45Z"/><path class="cls-1" d="M1548.81,484.92c2.64,0,4.73.22,6.16,1,3,1.32,4.07,4.84,4.07,12.76,0,14.19-5.85,21.45-18.63,21.45h-.29v-8.91c5.17,0,7.15-1.43,7.7-4.51h-1a11.83,11.83,0,0,1-4.73-.77c-2.53-.88-3.52-3.63-3.52-9.79a22.87,22.87,0,0,1,.88-7c1.32-3.19,4.07-4.18,9.35-4.18m-21.78,0c2.64,0,4.73.22,6.16,1,3,1.32,4,4.84,4,12.76,0,14.19-5.63,21.45-18.41,21.45h-.29v-8.91c5.06,0,7.15-1.43,7.7-4.51h-1a12.77,12.77,0,0,1-4.84-.77c-2.53-.88-3.63-3.63-3.63-9.79,0-9.13,2.53-11.22,10.34-11.22m21.78-4c-4,0-8.19.48-11,3.46a8.78,8.78,0,0,0-2.85-2.06c-2.38-1.23-5.33-1.4-7.92-1.4-10.32,0-14.34,4.27-14.34,15.22,0,4.44.47,9.11,3.4,11.84a4,4,0,0,0-1.64,3.23v8.91a4,4,0,0,0,4,4h.32c7.53,0,13.27-2.3,17.07-6.83l.31-.39v3.22a4,4,0,0,0,4,4h.32c10.33,0,22.63-4.41,22.63-25.45,0-6.51-.49-13.66-6.31-16.35-2.38-1.23-5.33-1.4-7.92-1.4Z"/></g></g></svg>