<svg xmlns="http://www.w3.org/2000/svg" viewBox="0 0 758.16 751.11"><defs><style>.cls-1{fill:#1d1d1b;}</style></defs><g id="Camada_2" data-name="Camada 2"><g id="Camada_1-2" data-name="Camada 1"><path class="cls-1" d="M194.84,740H0V13.12H319V209H194.84v70.67H319V475.5H194.84Z"/><path class="cls-1" d="M335.16,538.09V213c0-148.4,77.73-213,216-213,144.36,0,207,61.58,207,213V330.12H556.25V213c0-38.36-3-39.37-10.1-39.37-11.1,0-11.1,3-11.1,39.37V531c0,36.35,2,39.38,11.1,39.38,8.08,0,10.1-3,10.1-39.38V402.81H758.16V538.09c0,151.43-79.76,213-212,213C411.88,751.11,335.16,696.59,335.16,538.09Z"/></g></g></svg>